<mxfile host="65bd71144e" scale="1" border="10">
    <diagram id="X3sNGoU-8sC0jHC4KcqI" name="Page-1">
        <mxGraphModel dx="7014" dy="1139" grid="1" gridSize="5" guides="1" tooltips="1" connect="1" arrows="1" fold="1" page="1" pageScale="1" pageWidth="5300" pageHeight="1600" math="0" shadow="0">
            <root>
                <mxCell id="0"/>
                <mxCell id="1" parent="0"/>
                <mxCell id="49" style="edgeStyle=none;html=1;exitX=0;exitY=0;exitDx=0;exitDy=0;entryX=1;entryY=1;entryDx=0;entryDy=0;endArrow=none;endFill=0;" parent="1" source="2" target="48" edge="1">
                    <mxGeometry relative="1" as="geometry"/>
                </mxCell>
                <object label="%name%&lt;font color=&quot;#ff0000&quot;&gt;%pk%&lt;/font&gt;&lt;br&gt;(%room%)" placeholders="1" name="Base of Mount duNoir" room="14220" tags="" pk="" healrate="100" manarate="100" sector="Mountain" id="2">
                    <mxCell style="rounded=0;whiteSpace=wrap;html=1;" parent="1" vertex="1">
                        <mxGeometry x="860" y="440" width="120" height="60" as="geometry"/>
                    </mxCell>
                </object>
                <mxCell id="52" style="edgeStyle=none;html=1;exitX=0;exitY=0;exitDx=0;exitDy=0;entryX=1;entryY=1;entryDx=0;entryDy=0;endArrow=none;endFill=0;" parent="1" source="48" target="50" edge="1">
                    <mxGeometry relative="1" as="geometry"/>
                </mxCell>
                <object label="%name%&lt;font color=&quot;#ff0000&quot;&gt;%pk%&lt;/font&gt;&lt;br&gt;(%room%)" placeholders="1" name="Path towards doom" room="14221" tags="" pk="" healrate="100" manarate="100" sector="Mountain" id="48">
                    <mxCell style="rounded=0;whiteSpace=wrap;html=1;" parent="1" vertex="1">
                        <mxGeometry x="700" y="340" width="120" height="60" as="geometry"/>
                    </mxCell>
                </object>
                <mxCell id="53" style="edgeStyle=none;html=1;exitX=0.5;exitY=0;exitDx=0;exitDy=0;entryX=0.5;entryY=1;entryDx=0;entryDy=0;endArrow=none;endFill=0;" parent="1" source="50" target="51" edge="1">
                    <mxGeometry relative="1" as="geometry"/>
                </mxCell>
                <object label="%name%&lt;font color=&quot;#ff0000&quot;&gt;%pk%&lt;/font&gt;&lt;br&gt;(%room%)" placeholders="1" name="Entrance to a forbidding cave" room="14222" tags="" pk="" healrate="100" manarate="100" sector="Mountain" id="50">
                    <mxCell style="rounded=0;whiteSpace=wrap;html=1;" parent="1" vertex="1">
                        <mxGeometry x="540" y="240" width="120" height="60" as="geometry"/>
                    </mxCell>
                </object>
                <mxCell id="55" style="edgeStyle=none;html=1;exitX=0.5;exitY=0;exitDx=0;exitDy=0;entryX=0.5;entryY=1;entryDx=0;entryDy=0;endArrow=none;endFill=0;" parent="1" source="51" target="54" edge="1">
                    <mxGeometry relative="1" as="geometry"/>
                </mxCell>
                <object label="%name%&lt;font color=&quot;#ff0000&quot;&gt;%pk%&lt;/font&gt;&lt;br&gt;(%room%)" placeholders="1" name="Tight tunnel" room="14223" tags="indoors" pk="" healrate="100" manarate="100" sector="Inside" id="51">
                    <mxCell style="rounded=0;whiteSpace=wrap;html=1;" parent="1" vertex="1">
                        <mxGeometry x="540" y="140" width="120" height="60" as="geometry"/>
                    </mxCell>
                </object>
                <object label="%name%&lt;font color=&quot;#ff0000&quot;&gt;%pk%&lt;/font&gt;&lt;br&gt;(%room%)" placeholders="1" name="End of cave" room="14224" tags="indoors" pk="" healrate="100" manarate="100" sector="Inside" id="54">
                    <mxCell style="rounded=0;whiteSpace=wrap;html=1;" parent="1" vertex="1">
                        <mxGeometry x="540" y="40" width="120" height="60" as="geometry"/>
                    </mxCell>
                </object>
                <object label="%name%&lt;font color=&quot;#ff0000&quot;&gt;%pk%&lt;/font&gt;&lt;br&gt;(%room%)" placeholders="1" name="On a wooden ladder" room="14225" tags="nomobs indoors" pk="" healrate="100" manarate="100" sector="Inside" id="56">
                    <mxCell style="rounded=0;whiteSpace=wrap;html=1;" parent="1" vertex="1">
                        <mxGeometry x="380" y="140" width="120" height="60" as="geometry"/>
                    </mxCell>
                </object>
                <mxCell id="57" value="" style="endArrow=none;html=1;rounded=0;shadow=0;sketch=0;fontSize=13;strokeColor=default;jumpStyle=none;jumpSize=6;verticalAlign=middle;horizontal=1;endFill=0;entryX=0;entryY=1;entryDx=0;entryDy=0;exitX=1;exitY=0;exitDx=0;exitDy=0;" parent="1" source="56" target="54" edge="1">
                    <mxGeometry relative="1" as="geometry">
                        <mxPoint x="480" y="415" as="sourcePoint"/>
                        <mxPoint x="520" y="375" as="targetPoint"/>
                    </mxGeometry>
                </mxCell>
                <mxCell id="58" value="&lt;div style=&quot;font-size: 20px;&quot;&gt;|&lt;/div&gt;" style="edgeLabel;resizable=0;html=1;align=center;verticalAlign=middle;fontSize=20;strokeColor=#630000;strokeWidth=1;fillColor=#FF0000;gradientColor=none;horizontal=1;labelBackgroundColor=none;direction=south;rotation=-45;" parent="57" connectable="0" vertex="1">
                    <mxGeometry relative="1" as="geometry">
                        <mxPoint x="-3" as="offset"/>
                    </mxGeometry>
                </mxCell>
                <mxCell id="60" style="edgeStyle=none;html=1;exitX=1;exitY=0;exitDx=0;exitDy=0;entryX=0;entryY=1;entryDx=0;entryDy=0;endArrow=none;endFill=0;" parent="1" source="59" target="56" edge="1">
                    <mxGeometry relative="1" as="geometry"/>
                </mxCell>
                <mxCell id="62" style="edgeStyle=none;html=1;exitX=1;exitY=1;exitDx=0;exitDy=0;entryX=0;entryY=0;entryDx=0;entryDy=0;endArrow=none;endFill=0;" parent="1" source="59" target="61" edge="1">
                    <mxGeometry relative="1" as="geometry"/>
                </mxCell>
                <object label="%name%&lt;font color=&quot;#ff0000&quot;&gt;%pk%&lt;/font&gt;&lt;br&gt;(%room%)" placeholders="1" name="On a wooden ladder" room="14226" tags="indoors" pk="" healrate="100" manarate="100" sector="Inside" id="59">
                    <mxCell style="rounded=0;whiteSpace=wrap;html=1;" parent="1" vertex="1">
                        <mxGeometry x="220" y="240" width="120" height="60" as="geometry"/>
                    </mxCell>
                </object>
                <mxCell id="64" value="" style="edgeStyle=none;html=1;endArrow=none;endFill=0;" parent="1" source="61" target="63" edge="1">
                    <mxGeometry relative="1" as="geometry"/>
                </mxCell>
                <object label="%name%&lt;font color=&quot;#ff0000&quot;&gt;%pk%&lt;/font&gt;&lt;br&gt;(%room%)" placeholders="1" name="Bottom of ladder" room="14227" tags="indoors" pk="" healrate="100" manarate="100" sector="Inside" id="61">
                    <mxCell style="rounded=0;whiteSpace=wrap;html=1;" parent="1" vertex="1">
                        <mxGeometry x="380" y="340" width="120" height="60" as="geometry"/>
                    </mxCell>
                </object>
                <mxCell id="66" value="" style="edgeStyle=none;html=1;endArrow=none;endFill=0;" parent="1" source="63" target="65" edge="1">
                    <mxGeometry relative="1" as="geometry"/>
                </mxCell>
                <mxCell id="73" value="" style="edgeStyle=none;html=1;endArrow=none;endFill=0;" parent="1" source="63" target="72" edge="1">
                    <mxGeometry relative="1" as="geometry"/>
                </mxCell>
                <object label="%name%&lt;font color=&quot;#ff0000&quot;&gt;%pk%&lt;/font&gt;&lt;br&gt;(%room%)" placeholders="1" name="A blood stained corridor" room="14228" tags="indoors" pk="" healrate="100" manarate="100" sector="Inside" id="63">
                    <mxCell style="rounded=0;whiteSpace=wrap;html=1;" parent="1" vertex="1">
                        <mxGeometry x="380" y="440" width="120" height="60" as="geometry"/>
                    </mxCell>
                </object>
                <mxCell id="68" value="" style="edgeStyle=none;html=1;endArrow=none;endFill=0;" parent="1" source="65" target="67" edge="1">
                    <mxGeometry relative="1" as="geometry"/>
                </mxCell>
                <object label="%name%&lt;font color=&quot;#ff0000&quot;&gt;%pk%&lt;/font&gt;&lt;br&gt;(%room%)" placeholders="1" name="A blood stained corridor" room="14229" tags="indoors" pk="" healrate="100" manarate="100" sector="Inside" id="65">
                    <mxCell style="rounded=0;whiteSpace=wrap;html=1;" parent="1" vertex="1">
                        <mxGeometry x="220" y="440" width="120" height="60" as="geometry"/>
                    </mxCell>
                </object>
                <object label="%name%&lt;font color=&quot;#ff0000&quot;&gt;%pk%&lt;/font&gt;&lt;br&gt;(%room%)" placeholders="1" name="End of corridor" room="14230" tags="indoors" pk="" healrate="100" manarate="100" sector="Inside" id="67">
                    <mxCell style="rounded=0;whiteSpace=wrap;html=1;" parent="1" vertex="1">
                        <mxGeometry x="60" y="440" width="120" height="60" as="geometry"/>
                    </mxCell>
                </object>
                <object label="%name%&lt;font color=&quot;#ff0000&quot;&gt;%pk%&lt;/font&gt;&lt;br&gt;(%room%)" placeholders="1" name="Anthbeast water closet" room="14231" tags="indoors norecall prison" pk="" healrate="100" manarate="100" sector="Inside" id="69">
                    <mxCell style="rounded=0;whiteSpace=wrap;html=1;strokeColor=#FF0000;strokeWidth=2;fillColor=#CCFFFF;" parent="1" vertex="1">
                        <mxGeometry x="60" y="340" width="120" height="60" as="geometry"/>
                    </mxCell>
                </object>
                <mxCell id="70" value="" style="endArrow=none;html=1;rounded=0;shadow=0;sketch=0;fontSize=13;strokeColor=default;jumpStyle=none;jumpSize=6;verticalAlign=middle;horizontal=1;endFill=0;exitX=0.5;exitY=0;exitDx=0;exitDy=0;entryX=0.5;entryY=1;entryDx=0;entryDy=0;" parent="1" source="67" target="69" edge="1">
                    <mxGeometry relative="1" as="geometry">
                        <mxPoint x="558" y="415" as="sourcePoint"/>
                        <mxPoint x="558" y="375" as="targetPoint"/>
                    </mxGeometry>
                </mxCell>
                <mxCell id="71" value="&lt;div style=&quot;font-size: 20px;&quot;&gt;|&lt;/div&gt;" style="edgeLabel;resizable=0;html=1;align=center;verticalAlign=middle;fontSize=20;strokeColor=#630000;strokeWidth=1;fillColor=#FF0000;gradientColor=none;horizontal=1;labelBackgroundColor=none;direction=south;rotation=-90;" parent="70" connectable="0" vertex="1">
                    <mxGeometry relative="1" as="geometry">
                        <mxPoint x="-3" y="2" as="offset"/>
                    </mxGeometry>
                </mxCell>
                <mxCell id="75" value="" style="edgeStyle=none;html=1;endArrow=none;endFill=0;" parent="1" source="72" target="74" edge="1">
                    <mxGeometry relative="1" as="geometry"/>
                </mxCell>
                <object label="%name%&lt;font color=&quot;#ff0000&quot;&gt;%pk%&lt;/font&gt;&lt;br&gt;(%room%)" placeholders="1" name="Bend in corridor" room="14232" tags="indoors" pk="" healrate="100" manarate="100" sector="Inside" id="72">
                    <mxCell style="rounded=0;whiteSpace=wrap;html=1;" parent="1" vertex="1">
                        <mxGeometry x="540" y="440" width="120" height="60" as="geometry"/>
                    </mxCell>
                </object>
                <mxCell id="77" value="" style="edgeStyle=none;html=1;endArrow=none;endFill=0;" parent="1" source="74" target="76" edge="1">
                    <mxGeometry relative="1" as="geometry"/>
                </mxCell>
                <object label="%name%&lt;font color=&quot;#ff0000&quot;&gt;%pk%&lt;/font&gt;&lt;br&gt;(%room%)" placeholders="1" name="Guard room" room="14233" tags="indoors" pk="" healrate="100" manarate="100" sector="Inside" id="74">
                    <mxCell style="rounded=0;whiteSpace=wrap;html=1;" parent="1" vertex="1">
                        <mxGeometry x="540" y="540" width="120" height="60" as="geometry"/>
                    </mxCell>
                </object>
                <mxCell id="79" value="" style="edgeStyle=none;html=1;endArrow=none;endFill=0;" parent="1" source="76" target="78" edge="1">
                    <mxGeometry relative="1" as="geometry"/>
                </mxCell>
                <object label="%name%&lt;font color=&quot;#ff0000&quot;&gt;%pk%&lt;/font&gt;&lt;br&gt;(%room%)" placeholders="1" name="Bend in the corridor" room="14234" tags="indoors" pk="" healrate="100" manarate="100" sector="Inside" id="76">
                    <mxCell style="rounded=0;whiteSpace=wrap;html=1;" parent="1" vertex="1">
                        <mxGeometry x="540" y="640" width="120" height="60" as="geometry"/>
                    </mxCell>
                </object>
                <mxCell id="81" value="" style="edgeStyle=none;html=1;endArrow=none;endFill=0;" parent="1" source="78" target="80" edge="1">
                    <mxGeometry relative="1" as="geometry"/>
                </mxCell>
                <mxCell id="83" value="" style="edgeStyle=none;html=1;endArrow=none;endFill=0;" parent="1" source="78" target="82" edge="1">
                    <mxGeometry relative="1" as="geometry"/>
                </mxCell>
                <mxCell id="85" value="" style="edgeStyle=none;html=1;endArrow=none;endFill=0;" parent="1" source="78" target="84" edge="1">
                    <mxGeometry relative="1" as="geometry"/>
                </mxCell>
                <object label="%name%&lt;font color=&quot;#ff0000&quot;&gt;%pk%&lt;/font&gt;&lt;br&gt;(%room%)" placeholders="1" name="Quiet intersection" room="14235" tags="indoors" pk="" healrate="100" manarate="100" sector="Inside" id="78">
                    <mxCell style="rounded=0;whiteSpace=wrap;html=1;" parent="1" vertex="1">
                        <mxGeometry x="380" y="640" width="120" height="60" as="geometry"/>
                    </mxCell>
                </object>
                <object label="%name%&lt;font color=&quot;#ff0000&quot;&gt;%pk%&lt;/font&gt;&lt;br&gt;(%room%)" placeholders="1" name="Anthbeast spawning chamber" room="14238" tags="indoors" pk="" healrate="100" manarate="100" sector="Inside" id="80">
                    <mxCell style="rounded=0;whiteSpace=wrap;html=1;" parent="1" vertex="1">
                        <mxGeometry x="380" y="740" width="120" height="60" as="geometry"/>
                    </mxCell>
                </object>
                <object label="%name%&lt;font color=&quot;#ff0000&quot;&gt;%pk%&lt;/font&gt;&lt;br&gt;(%room%)" placeholders="1" name="Kitchen" room="14239" tags="indoors" pk="" healrate="100" manarate="100" sector="Inside" id="82">
                    <mxCell style="rounded=0;whiteSpace=wrap;html=1;strokeColor=#FF0000;strokeWidth=2;" parent="1" vertex="1">
                        <mxGeometry x="220" y="640" width="120" height="60" as="geometry"/>
                    </mxCell>
                </object>
                <mxCell id="87" value="" style="edgeStyle=none;html=1;endArrow=none;endFill=0;" parent="1" source="84" target="86" edge="1">
                    <mxGeometry relative="1" as="geometry"/>
                </mxCell>
                <object label="%name%&lt;font color=&quot;#ff0000&quot;&gt;%pk%&lt;/font&gt;&lt;br&gt;(%room%)" placeholders="1" name="Barracks" room="14236" tags="indoors" pk="" healrate="100" manarate="100" sector="Inside" id="84">
                    <mxCell style="rounded=0;whiteSpace=wrap;html=1;" parent="1" vertex="1">
                        <mxGeometry x="380" y="540" width="120" height="60" as="geometry"/>
                    </mxCell>
                </object>
                <object label="%name%&lt;font color=&quot;#ff0000&quot;&gt;%pk%&lt;/font&gt;&lt;br&gt;(%room%)" placeholders="1" name="Barracks" room="14237" tags="indoors" pk="" healrate="100" manarate="100" sector="Inside" id="86">
                    <mxCell style="rounded=0;whiteSpace=wrap;html=1;" parent="1" vertex="1">
                        <mxGeometry x="220" y="540" width="120" height="60" as="geometry"/>
                    </mxCell>
                </object>
                <mxCell id="95" value="" style="edgeStyle=none;html=1;endArrow=none;endFill=0;" parent="1" source="90" target="94" edge="1">
                    <mxGeometry relative="1" as="geometry"/>
                </mxCell>
                <object label="%name%&lt;font color=&quot;#ff0000&quot;&gt;%pk%&lt;/font&gt;&lt;br&gt;(%room%)" placeholders="1" name="Shadowy hallway" room="14240" tags="indoors" pk="" healrate="100" manarate="100" sector="Inside" id="90">
                    <mxCell style="rounded=0;whiteSpace=wrap;html=1;" parent="1" vertex="1">
                        <mxGeometry x="860" y="540" width="120" height="60" as="geometry"/>
                    </mxCell>
                </object>
                <mxCell id="97" value="" style="edgeStyle=none;html=1;endArrow=none;endFill=0;" parent="1" source="94" target="96" edge="1">
                    <mxGeometry relative="1" as="geometry"/>
                </mxCell>
                <object label="%name%&lt;font color=&quot;#ff0000&quot;&gt;%pk%&lt;/font&gt;&lt;br&gt;(%room%)" placeholders="1" name="Shadowy hallway" room="14241" tags="indoors" pk="" healrate="100" manarate="100" sector="Inside" id="94">
                    <mxCell style="rounded=0;whiteSpace=wrap;html=1;" parent="1" vertex="1">
                        <mxGeometry x="1020" y="540" width="120" height="60" as="geometry"/>
                    </mxCell>
                </object>
                <mxCell id="99" value="" style="edgeStyle=none;html=1;endArrow=none;endFill=0;" parent="1" source="96" target="98" edge="1">
                    <mxGeometry relative="1" as="geometry"/>
                </mxCell>
                <mxCell id="101" value="" style="edgeStyle=none;html=1;endArrow=none;endFill=0;" parent="1" source="96" target="100" edge="1">
                    <mxGeometry relative="1" as="geometry"/>
                </mxCell>
                <object label="%name%&lt;font color=&quot;#ff0000&quot;&gt;%pk%&lt;/font&gt;&lt;br&gt;(%room%)" placeholders="1" name="Shadowy hallway" room="14242" tags="indoors" pk="" healrate="100" manarate="100" sector="Inside" id="96">
                    <mxCell style="rounded=0;whiteSpace=wrap;html=1;" parent="1" vertex="1">
                        <mxGeometry x="1180" y="540" width="120" height="60" as="geometry"/>
                    </mxCell>
                </object>
                <object label="%name%&lt;font color=&quot;#ff0000&quot;&gt;%pk%&lt;/font&gt;&lt;br&gt;(%room%)" placeholders="1" name="Soul corruption chamber" room="14243" tags="indoors" pk="" healrate="100" manarate="100" sector="Inside" id="98">
                    <mxCell style="rounded=0;whiteSpace=wrap;html=1;" parent="1" vertex="1">
                        <mxGeometry x="1180" y="640" width="120" height="60" as="geometry"/>
                    </mxCell>
                </object>
                <mxCell id="103" value="" style="edgeStyle=none;html=1;endArrow=none;endFill=0;" parent="1" source="100" target="102" edge="1">
                    <mxGeometry relative="1" as="geometry"/>
                </mxCell>
                <mxCell id="107" value="" style="edgeStyle=none;html=1;endArrow=none;endFill=0;" parent="1" source="100" target="106" edge="1">
                    <mxGeometry relative="1" as="geometry"/>
                </mxCell>
                <object label="%name%&lt;font color=&quot;#ff0000&quot;&gt;%pk%&lt;/font&gt;&lt;br&gt;(%room%)" placeholders="1" name="Split in shadowy hallway" room="14244" tags="indoors" pk="" healrate="100" manarate="100" sector="Inside" id="100">
                    <mxCell style="rounded=0;whiteSpace=wrap;html=1;" parent="1" vertex="1">
                        <mxGeometry x="1340" y="540" width="120" height="60" as="geometry"/>
                    </mxCell>
                </object>
                <mxCell id="105" value="" style="edgeStyle=none;html=1;endArrow=none;endFill=0;" parent="1" source="102" target="104" edge="1">
                    <mxGeometry relative="1" as="geometry"/>
                </mxCell>
                <object label="%name%&lt;font color=&quot;#ff0000&quot;&gt;%pk%&lt;/font&gt;&lt;br&gt;(%room%)" placeholders="1" name="Armory of Dn'Orek" room="14247" tags="indoors forge" pk="" healrate="100" manarate="100" sector="Inside" id="102">
                    <mxCell style="rounded=0;whiteSpace=wrap;html=1;" parent="1" vertex="1">
                        <mxGeometry x="1340" y="440" width="120" height="60" as="geometry"/>
                    </mxCell>
                </object>
                <object label="%name%&lt;font color=&quot;#ff0000&quot;&gt;%pk%&lt;/font&gt;&lt;br&gt;(%room%)" placeholders="1" name="Armory of Dn'Orek" room="14248" tags="indoors forge" pk="" healrate="100" manarate="100" sector="Inside" id="104">
                    <mxCell style="rounded=0;whiteSpace=wrap;html=1;strokeColor=#FF0000;strokeWidth=2;" parent="1" vertex="1">
                        <mxGeometry x="1500" y="440" width="120" height="60" as="geometry"/>
                    </mxCell>
                </object>
                <mxCell id="109" value="" style="edgeStyle=none;html=1;endArrow=none;endFill=0;" parent="1" source="106" target="108" edge="1">
                    <mxGeometry relative="1" as="geometry"/>
                </mxCell>
                <object label="%name%&lt;font color=&quot;#ff0000&quot;&gt;%pk%&lt;/font&gt;&lt;br&gt;(%room%)" placeholders="1" name="Shadowy hallway" room="14245" tags="indoors" pk="" healrate="100" manarate="100" sector="Inside" id="106">
                    <mxCell style="rounded=0;whiteSpace=wrap;html=1;" parent="1" vertex="1">
                        <mxGeometry x="1340" y="640" width="120" height="60" as="geometry"/>
                    </mxCell>
                </object>
                <mxCell id="111" value="" style="edgeStyle=none;html=1;endArrow=none;endFill=0;" parent="1" source="108" target="110" edge="1">
                    <mxGeometry relative="1" as="geometry"/>
                </mxCell>
                <mxCell id="113" value="" style="edgeStyle=none;html=1;endArrow=none;endFill=0;" parent="1" source="108" target="112" edge="1">
                    <mxGeometry relative="1" as="geometry"/>
                </mxCell>
                <object label="%name%&lt;font color=&quot;#ff0000&quot;&gt;%pk%&lt;/font&gt;&lt;br&gt;(%room%)" placeholders="1" name="Shadowy hallway" room="14246" tags="indoors" pk="" healrate="100" manarate="100" sector="Inside" id="108">
                    <mxCell style="rounded=0;whiteSpace=wrap;html=1;" parent="1" vertex="1">
                        <mxGeometry x="1340" y="740" width="120" height="60" as="geometry"/>
                    </mxCell>
                </object>
                <object label="%name%&lt;font color=&quot;#ff0000&quot;&gt;%pk%&lt;/font&gt;&lt;br&gt;(%room%)" placeholders="1" name="Shadowy hallway" room="14249" tags="indoors" pk="" healrate="100" manarate="100" sector="Inside" id="110">
                    <mxCell style="rounded=0;whiteSpace=wrap;html=1;" parent="1" vertex="1">
                        <mxGeometry x="1500" y="740" width="120" height="60" as="geometry"/>
                    </mxCell>
                </object>
                <object label="%name%&lt;font color=&quot;#ff0000&quot;&gt;%pk%&lt;/font&gt;&lt;br&gt;(%room%)" placeholders="1" name="Shadowy hallway" room="14250" tags="nomobs indoors" pk="" healrate="100" manarate="100" sector="Inside" id="112">
                    <mxCell style="rounded=0;whiteSpace=wrap;html=1;" parent="1" vertex="1">
                        <mxGeometry x="1180" y="740" width="120" height="60" as="geometry"/>
                    </mxCell>
                </object>
                <mxCell id="118" value="" style="edgeStyle=none;html=1;endArrow=none;endFill=0;" parent="1" source="116" target="117" edge="1">
                    <mxGeometry relative="1" as="geometry"/>
                </mxCell>
                <object label="%name%&lt;font color=&quot;#ff0000&quot;&gt;%pk%&lt;/font&gt;&lt;br&gt;(%room%)" placeholders="1" name="Opulence" room="14258" tags="indoors" pk="" healrate="100" manarate="100" sector="Inside" id="116">
                    <mxCell style="rounded=0;whiteSpace=wrap;html=1;" parent="1" vertex="1">
                        <mxGeometry x="700" y="1040" width="120" height="60" as="geometry"/>
                    </mxCell>
                </object>
                <mxCell id="120" value="" style="edgeStyle=none;html=1;endArrow=none;endFill=0;" parent="1" source="117" target="119" edge="1">
                    <mxGeometry relative="1" as="geometry"/>
                </mxCell>
                <object label="%name%&lt;font color=&quot;#ff0000&quot;&gt;%pk%&lt;/font&gt;&lt;br&gt;(%room%)" placeholders="1" name="Opulence" room="14259" tags="indoors" pk="" healrate="100" manarate="100" sector="Inside" id="117">
                    <mxCell style="rounded=0;whiteSpace=wrap;html=1;" parent="1" vertex="1">
                        <mxGeometry x="700" y="940" width="120" height="60" as="geometry"/>
                    </mxCell>
                </object>
                <mxCell id="122" value="" style="edgeStyle=none;html=1;endArrow=none;endFill=0;" parent="1" source="119" target="121" edge="1">
                    <mxGeometry relative="1" as="geometry"/>
                </mxCell>
                <mxCell id="124" value="" style="edgeStyle=none;html=1;endArrow=none;endFill=0;" parent="1" source="119" target="123" edge="1">
                    <mxGeometry relative="1" as="geometry"/>
                </mxCell>
                <object label="%name%&lt;font color=&quot;#ff0000&quot;&gt;%pk%&lt;/font&gt;&lt;br&gt;(%room%)" placeholders="1" name="Opulent Intersection" room="14260" tags="indoors" pk="" healrate="100" manarate="100" sector="Inside" id="119">
                    <mxCell style="rounded=0;whiteSpace=wrap;html=1;" parent="1" vertex="1">
                        <mxGeometry x="700" y="740" width="120" height="60" as="geometry"/>
                    </mxCell>
                </object>
                <object label="%name%&lt;font color=&quot;#ff0000&quot;&gt;%pk%&lt;/font&gt;&lt;br&gt;(%room%)" placeholders="1" name="Before a stairway" room="14263" tags="indoors" pk="" healrate="100" manarate="100" sector="Inside" id="121">
                    <mxCell style="rounded=0;whiteSpace=wrap;html=1;" parent="1" vertex="1">
                        <mxGeometry x="540" y="740" width="120" height="60" as="geometry"/>
                    </mxCell>
                </object>
                <object label="%name%&lt;font color=&quot;#ff0000&quot;&gt;%pk%&lt;/font&gt;&lt;br&gt;(%room%)" placeholders="1" name="Opulence" room="14264" tags="indoors" pk="" healrate="100" manarate="100" sector="Inside" id="123">
                    <mxCell style="rounded=0;whiteSpace=wrap;html=1;" parent="1" vertex="1">
                        <mxGeometry x="860" y="740" width="120" height="60" as="geometry"/>
                    </mxCell>
                </object>
                <object label="%name%&lt;font color=&quot;#ff0000&quot;&gt;%pk%&lt;/font&gt;&lt;br&gt;(%room%)" placeholders="1" name="Treasure room" room="14251" tags="indoors norecall prison" pk="" healrate="100" manarate="100" sector="Inside" id="125">
                    <mxCell style="rounded=0;whiteSpace=wrap;html=1;fillColor=#CCFFFF;" parent="1" vertex="1">
                        <mxGeometry x="1500" y="540" width="120" height="60" as="geometry"/>
                    </mxCell>
                </object>
                <mxCell id="126" value="" style="endArrow=none;html=1;rounded=0;shadow=0;sketch=0;fontSize=13;strokeColor=default;jumpStyle=none;jumpSize=6;verticalAlign=middle;horizontal=1;endFill=0;entryX=0.5;entryY=1;entryDx=0;entryDy=0;exitX=0.5;exitY=0;exitDx=0;exitDy=0;" parent="1" source="125" target="104" edge="1">
                    <mxGeometry relative="1" as="geometry">
                        <mxPoint x="1223" y="485" as="sourcePoint"/>
                        <mxPoint x="1223" y="445" as="targetPoint"/>
                    </mxGeometry>
                </mxCell>
                <mxCell id="127" value="&lt;div style=&quot;font-size: 20px;&quot;&gt;|&lt;/div&gt;" style="edgeLabel;resizable=0;html=1;align=center;verticalAlign=middle;fontSize=20;strokeColor=#630000;strokeWidth=1;fillColor=#FF0000;gradientColor=none;horizontal=1;labelBackgroundColor=none;direction=south;rotation=-90;" parent="126" connectable="0" vertex="1">
                    <mxGeometry relative="1" as="geometry">
                        <mxPoint x="-3" y="2" as="offset"/>
                    </mxGeometry>
                </mxCell>
                <mxCell id="130" value="" style="endArrow=none;html=1;rounded=0;shadow=0;sketch=0;fontSize=13;strokeColor=default;jumpStyle=none;jumpSize=6;verticalAlign=middle;horizontal=1;endFill=0;exitX=1;exitY=0;exitDx=0;exitDy=0;entryX=0;entryY=1;entryDx=0;entryDy=0;" parent="1" source="116" target="112" edge="1">
                    <mxGeometry relative="1" as="geometry">
                        <mxPoint x="980" y="865" as="sourcePoint"/>
                        <mxPoint x="1020" y="825" as="targetPoint"/>
                        <Array as="points">
                            <mxPoint x="840" y="1020"/>
                            <mxPoint x="1160" y="1020"/>
                            <mxPoint x="1160" y="820"/>
                        </Array>
                    </mxGeometry>
                </mxCell>
                <mxCell id="131" value="&lt;div style=&quot;font-size: 20px;&quot;&gt;|&lt;/div&gt;" style="edgeLabel;resizable=0;html=1;align=center;verticalAlign=middle;fontSize=20;strokeColor=#630000;strokeWidth=1;fillColor=#FF0000;gradientColor=none;horizontal=1;labelBackgroundColor=none;direction=south;rotation=0;" parent="130" connectable="0" vertex="1">
                    <mxGeometry relative="1" as="geometry">
                        <mxPoint x="-3" y="-3" as="offset"/>
                    </mxGeometry>
                </mxCell>
                <object label="%name%&lt;font color=&quot;#ff0000&quot;&gt;%pk%&lt;/font&gt;&lt;br&gt;(%room%)" placeholders="1" name="Pitch blackness" room="14254" tags="indoors" pk="" healrate="100" manarate="100" sector="Inside" id="132">
                    <mxCell style="rounded=0;whiteSpace=wrap;html=1;" parent="1" vertex="1">
                        <mxGeometry x="1660" y="740" width="120" height="60" as="geometry"/>
                    </mxCell>
                </object>
                <mxCell id="141" value="" style="edgeStyle=none;html=1;endArrow=none;endFill=0;" parent="1" source="133" target="132" edge="1">
                    <mxGeometry relative="1" as="geometry"/>
                </mxCell>
                <mxCell id="142" value="" style="edgeStyle=none;html=1;endArrow=none;endFill=0;" parent="1" source="133" target="134" edge="1">
                    <mxGeometry relative="1" as="geometry"/>
                </mxCell>
                <mxCell id="143" value="" style="edgeStyle=none;html=1;endArrow=none;endFill=0;" parent="1" source="133" target="136" edge="1">
                    <mxGeometry relative="1" as="geometry"/>
                </mxCell>
                <object label="%name%&lt;font color=&quot;#ff0000&quot;&gt;%pk%&lt;/font&gt;&lt;br&gt;(%room%)" placeholders="1" name="Pitch blackness" room="14253" tags="indoors" pk="" healrate="100" manarate="100" sector="Inside" id="133">
                    <mxCell style="rounded=0;whiteSpace=wrap;html=1;" parent="1" vertex="1">
                        <mxGeometry x="1820" y="740" width="120" height="60" as="geometry"/>
                    </mxCell>
                </object>
                <object label="%name%&lt;font color=&quot;#ff0000&quot;&gt;%pk%&lt;/font&gt;&lt;br&gt;(%room%)" placeholders="1" name="Pitch blackness" room="14255" tags="indoors" pk="" healrate="100" manarate="100" sector="Inside" id="134">
                    <mxCell style="rounded=0;whiteSpace=wrap;html=1;" parent="1" vertex="1">
                        <mxGeometry x="1980" y="740" width="120" height="60" as="geometry"/>
                    </mxCell>
                </object>
                <mxCell id="140" value="" style="edgeStyle=none;html=1;endArrow=none;endFill=0;" parent="1" source="135" target="133" edge="1">
                    <mxGeometry relative="1" as="geometry"/>
                </mxCell>
                <object label="%name%&lt;font color=&quot;#ff0000&quot;&gt;%pk%&lt;/font&gt;&lt;br&gt;(%room%)" placeholders="1" name="Pitch blackness" room="14252" tags="indoors" pk="" healrate="100" manarate="100" sector="Inside" id="135">
                    <mxCell style="rounded=0;whiteSpace=wrap;html=1;" parent="1" vertex="1">
                        <mxGeometry x="1820" y="840" width="120" height="60" as="geometry"/>
                    </mxCell>
                </object>
                <object label="%name%&lt;font color=&quot;#ff0000&quot;&gt;%pk%&lt;/font&gt;&lt;br&gt;(%room%)" placeholders="1" name="Pitch blackness" room="14256" tags="indoors" pk="" healrate="100" manarate="100" sector="Inside" id="136">
                    <mxCell style="rounded=0;whiteSpace=wrap;html=1;" parent="1" vertex="1">
                        <mxGeometry x="1820" y="640" width="120" height="60" as="geometry"/>
                    </mxCell>
                </object>
                <object label="%name%&lt;font color=&quot;#ff0000&quot;&gt;%pk%&lt;/font&gt;&lt;br&gt;(%room%)" placeholders="1" name="Assassin's hideout" room="14257" tags="indoors norecall prison" pk="" healrate="100" manarate="100" sector="Inside" id="137">
                    <mxCell style="rounded=0;whiteSpace=wrap;html=1;strokeColor=#FF0000;strokeWidth=2;fillColor=#CCFFFF;" parent="1" vertex="1">
                        <mxGeometry x="1820" y="540" width="120" height="60" as="geometry"/>
                    </mxCell>
                </object>
                <mxCell id="138" value="" style="endArrow=none;html=1;rounded=0;shadow=0;sketch=0;fontSize=13;strokeColor=default;jumpStyle=none;jumpSize=6;verticalAlign=middle;horizontal=1;endFill=0;exitX=1;exitY=1;exitDx=0;exitDy=0;entryX=0;entryY=0;entryDx=0;entryDy=0;" parent="1" source="110" target="135" edge="1">
                    <mxGeometry relative="1" as="geometry">
                        <mxPoint x="1655" y="848" as="sourcePoint"/>
                        <mxPoint x="1695" y="848" as="targetPoint"/>
                        <Array as="points">
                            <mxPoint x="1640" y="820"/>
                            <mxPoint x="1800" y="820"/>
                        </Array>
                    </mxGeometry>
                </mxCell>
                <mxCell id="139" value="&lt;div style=&quot;font-size: 20px;&quot;&gt;|&lt;/div&gt;" style="edgeLabel;resizable=0;html=1;align=center;verticalAlign=middle;fontSize=20;strokeColor=#630000;strokeWidth=1;fillColor=#FF0000;gradientColor=none;horizontal=1;labelBackgroundColor=none;direction=south;rotation=0;" parent="138" connectable="0" vertex="1">
                    <mxGeometry relative="1" as="geometry">
                        <mxPoint x="-2" y="-3" as="offset"/>
                    </mxGeometry>
                </mxCell>
                <mxCell id="145" value="" style="endArrow=none;html=1;rounded=0;shadow=0;sketch=0;fontSize=13;strokeColor=default;jumpStyle=none;jumpSize=6;verticalAlign=middle;horizontal=1;endFill=0;entryX=0.5;entryY=1;entryDx=0;entryDy=0;exitX=0.5;exitY=0;exitDx=0;exitDy=0;" parent="1" source="136" target="137" edge="1">
                    <mxGeometry relative="1" as="geometry">
                        <mxPoint x="1678" y="865" as="sourcePoint"/>
                        <mxPoint x="1678" y="825" as="targetPoint"/>
                    </mxGeometry>
                </mxCell>
                <mxCell id="146" value="&lt;div style=&quot;font-size: 20px&quot;&gt;X&lt;/div&gt;" style="edgeLabel;resizable=0;html=1;align=center;verticalAlign=middle;fontSize=20;strokeColor=#630000;strokeWidth=1;fillColor=#FF0000;gradientColor=none;horizontal=1;labelBackgroundColor=none;direction=south;rotation=-90;" parent="145" connectable="0" vertex="1">
                    <mxGeometry relative="1" as="geometry">
                        <mxPoint x="-1" y="2" as="offset"/>
                    </mxGeometry>
                </mxCell>
                <mxCell id="147" value="&lt;font style=&quot;font-size: 11px&quot; color=&quot;#0000ff&quot;&gt;&lt;b&gt;enter pool&lt;/b&gt;&lt;/font&gt;" style="text;html=1;strokeColor=none;fillColor=none;align=center;verticalAlign=middle;whiteSpace=wrap;rounded=0;" parent="1" vertex="1">
                    <mxGeometry x="1820" y="585" width="120" height="15" as="geometry"/>
                </mxCell>
                <object label="%name%&lt;font color=&quot;#ff0000&quot;&gt;%pk%&lt;/font&gt;&lt;br&gt;(%room%)" placeholders="1" name="A lush Green oasis" room="14301" tags="nomobs norecall nobeacon" pk="" healrate="125" manarate="125" sector="Forest" id="148">
                    <mxCell style="rounded=0;whiteSpace=wrap;html=1;" parent="1" vertex="1">
                        <mxGeometry x="1980" y="540" width="120" height="60" as="geometry"/>
                    </mxCell>
                </object>
                <mxCell id="149" value="&lt;font style=&quot;font-size: 11px&quot; color=&quot;#0000ff&quot;&gt;&lt;b&gt;(enter pool)&lt;/b&gt;&lt;/font&gt;" style="text;html=1;strokeColor=none;fillColor=none;align=center;verticalAlign=middle;whiteSpace=wrap;rounded=0;" parent="1" vertex="1">
                    <mxGeometry x="1980" y="540" width="120" height="15" as="geometry"/>
                </mxCell>
                <mxCell id="150" value="&lt;font style=&quot;font-size: 11px&quot; color=&quot;#0000ff&quot;&gt;&lt;b&gt;say bhazhat&lt;/b&gt;&lt;/font&gt;" style="text;html=1;strokeColor=none;fillColor=none;align=center;verticalAlign=middle;whiteSpace=wrap;rounded=0;" parent="1" vertex="1">
                    <mxGeometry x="1980" y="585" width="120" height="15" as="geometry"/>
                </mxCell>
                <mxCell id="154" value="" style="edgeStyle=none;html=1;endArrow=none;endFill=0;" parent="1" source="151" target="153" edge="1">
                    <mxGeometry relative="1" as="geometry"/>
                </mxCell>
                <object label="%name%&lt;font color=&quot;#ff0000&quot;&gt;%pk%&lt;/font&gt;&lt;br&gt;(%room%)" placeholders="1" name="A small alcove" room="14281" tags="indoors noport nobeacon" pk="" healrate="0" manarate="0" sector="Inside" id="151">
                    <mxCell style="rounded=0;whiteSpace=wrap;html=1;" parent="1" vertex="1">
                        <mxGeometry x="1980" y="440" width="120" height="60" as="geometry"/>
                    </mxCell>
                </object>
                <mxCell id="152" value="&lt;font style=&quot;font-size: 11px&quot; color=&quot;#0000ff&quot;&gt;&lt;b&gt;(say bhazhat)&lt;/b&gt;&lt;/font&gt;" style="text;html=1;strokeColor=none;fillColor=none;align=center;verticalAlign=middle;whiteSpace=wrap;rounded=0;" parent="1" vertex="1">
                    <mxGeometry x="1980" y="485" width="120" height="15" as="geometry"/>
                </mxCell>
                <mxCell id="160" value="" style="edgeStyle=none;html=1;endArrow=none;endFill=0;" parent="1" source="153" target="157" edge="1">
                    <mxGeometry relative="1" as="geometry"/>
                </mxCell>
                <mxCell id="164" style="edgeStyle=none;rounded=0;html=1;exitX=1;exitY=0.5;exitDx=0;exitDy=0;entryX=0;entryY=0.5;entryDx=0;entryDy=0;endArrow=none;endFill=0;" parent="1" source="153" target="159" edge="1">
                    <mxGeometry relative="1" as="geometry"/>
                </mxCell>
                <object label="%name%&lt;font color=&quot;#ff0000&quot;&gt;%pk%&lt;/font&gt;&lt;br&gt;(%room%)" placeholders="1" name="Flying over Lava" room="14282" tags="indoors norecall prison noport nobeacon" pk="" healrate="0" manarate="0" sector="Air" id="153">
                    <mxCell style="rounded=0;whiteSpace=wrap;html=1;strokeColor=#0000FF;strokeWidth=3;fillColor=#CCFFFF;" parent="1" vertex="1">
                        <mxGeometry x="1980" y="340" width="120" height="60" as="geometry"/>
                    </mxCell>
                </object>
                <mxCell id="166" style="edgeStyle=none;rounded=0;html=1;exitX=0.5;exitY=0;exitDx=0;exitDy=0;entryX=0.5;entryY=1;entryDx=0;entryDy=0;endArrow=none;endFill=0;" parent="1" source="155" target="156" edge="1">
                    <mxGeometry relative="1" as="geometry"/>
                </mxCell>
                <object label="%name%&lt;font color=&quot;#ff0000&quot;&gt;%pk%&lt;/font&gt;&lt;br&gt;(%room%)" placeholders="1" name="Flying over Lava" room="14284" tags="indoors norecall prison noport nobeacon" pk="" healrate="0" manarate="0" sector="Air" id="155">
                    <mxCell style="rounded=0;whiteSpace=wrap;html=1;strokeColor=#0000FF;strokeWidth=3;fillColor=#CCFFFF;" parent="1" vertex="1">
                        <mxGeometry x="2300" y="340" width="120" height="60" as="geometry"/>
                    </mxCell>
                </object>
                <mxCell id="163" style="edgeStyle=none;rounded=0;html=1;exitX=1;exitY=0.5;exitDx=0;exitDy=0;entryX=0;entryY=0.5;entryDx=0;entryDy=0;endArrow=none;endFill=0;" parent="1" source="156" target="162" edge="1">
                    <mxGeometry relative="1" as="geometry"/>
                </mxCell>
                <object label="%name%&lt;font color=&quot;#ff0000&quot;&gt;%pk%&lt;/font&gt;&lt;br&gt;(%room%)" placeholders="1" name="Flying over Lava" room="14287" tags="indoors norecall prison noport nobeacon" pk="" healrate="0" manarate="0" sector="Air" id="156">
                    <mxCell style="rounded=0;whiteSpace=wrap;html=1;strokeColor=#0000FF;strokeWidth=3;fillColor=#CCFFFF;" parent="1" vertex="1">
                        <mxGeometry x="2300" y="240" width="120" height="60" as="geometry"/>
                    </mxCell>
                </object>
                <mxCell id="168" style="edgeStyle=none;rounded=0;html=1;exitX=1;exitY=0.5;exitDx=0;exitDy=0;entryX=0;entryY=0.5;entryDx=0;entryDy=0;endArrow=none;endFill=0;" parent="1" source="157" target="158" edge="1">
                    <mxGeometry relative="1" as="geometry"/>
                </mxCell>
                <object label="%name%&lt;font color=&quot;#ff0000&quot;&gt;%pk%&lt;/font&gt;&lt;br&gt;(%room%)" placeholders="1" name="Flying over Lava" room="14285" tags="indoors norecall prison noport nobeacon" pk="" healrate="0" manarate="0" sector="Air" id="157">
                    <mxCell style="rounded=0;whiteSpace=wrap;html=1;strokeColor=#0000FF;strokeWidth=3;fillColor=#CCFFFF;" parent="1" vertex="1">
                        <mxGeometry x="1980" y="240" width="120" height="60" as="geometry"/>
                    </mxCell>
                </object>
                <mxCell id="169" style="edgeStyle=none;rounded=0;html=1;exitX=1;exitY=0.5;exitDx=0;exitDy=0;entryX=0;entryY=0.5;entryDx=0;entryDy=0;endArrow=none;endFill=0;" parent="1" source="158" target="156" edge="1">
                    <mxGeometry relative="1" as="geometry"/>
                </mxCell>
                <object label="%name%&lt;font color=&quot;#ff0000&quot;&gt;%pk%&lt;/font&gt;&lt;br&gt;(%room%)" placeholders="1" name="Flying over Lava" room="14286" tags="indoors norecall prison noport nobeacon" pk="" healrate="0" manarate="0" sector="Air" id="158">
                    <mxCell style="rounded=0;whiteSpace=wrap;html=1;strokeColor=#0000FF;strokeWidth=3;fillColor=#CCFFFF;" parent="1" vertex="1">
                        <mxGeometry x="2140" y="240" width="120" height="60" as="geometry"/>
                    </mxCell>
                </object>
                <mxCell id="165" style="edgeStyle=none;rounded=0;html=1;exitX=1;exitY=0.5;exitDx=0;exitDy=0;entryX=0;entryY=0.5;entryDx=0;entryDy=0;endArrow=none;endFill=0;" parent="1" source="159" target="155" edge="1">
                    <mxGeometry relative="1" as="geometry"/>
                </mxCell>
                <mxCell id="167" style="edgeStyle=none;rounded=0;html=1;exitX=0.5;exitY=0;exitDx=0;exitDy=0;entryX=0.5;entryY=1;entryDx=0;entryDy=0;endArrow=none;endFill=0;" parent="1" source="159" target="158" edge="1">
                    <mxGeometry relative="1" as="geometry"/>
                </mxCell>
                <object label="%name%&lt;font color=&quot;#ff0000&quot;&gt;%pk%&lt;/font&gt;&lt;br&gt;(%room%)" placeholders="1" name="Flying over Lava" room="14283" tags="indoors norecall prison noport nobeacon" pk="" healrate="0" manarate="0" sector="Air" id="159">
                    <mxCell style="rounded=0;whiteSpace=wrap;html=1;strokeColor=#0000FF;strokeWidth=3;fillColor=#CCFFFF;" parent="1" vertex="1">
                        <mxGeometry x="2140" y="340" width="120" height="60" as="geometry"/>
                    </mxCell>
                </object>
                <mxCell id="172" value="" style="edgeStyle=none;rounded=0;html=1;endArrow=none;endFill=0;" parent="1" source="162" target="171" edge="1">
                    <mxGeometry relative="1" as="geometry"/>
                </mxCell>
                <object label="%name%&lt;font color=&quot;#ff0000&quot;&gt;%pk%&lt;/font&gt;&lt;br&gt;(%room%)" placeholders="1" name="Burning Tunnel" room="14288" tags="indoors noport nobeacon" pk="" healrate="0" manarate="0" sector="Inside" id="162">
                    <mxCell style="rounded=0;whiteSpace=wrap;html=1;" parent="1" vertex="1">
                        <mxGeometry x="2460" y="240" width="120" height="60" as="geometry"/>
                    </mxCell>
                </object>
                <mxCell id="174" value="" style="edgeStyle=none;rounded=0;html=1;endArrow=none;endFill=0;" parent="1" source="171" target="173" edge="1">
                    <mxGeometry relative="1" as="geometry"/>
                </mxCell>
                <object label="%name%&lt;font color=&quot;#ff0000&quot;&gt;%pk%&lt;/font&gt;&lt;br&gt;(%room%)" placeholders="1" name="Burning Tunnel" room="14289" tags="indoors noport nobeacon" pk="" healrate="0" manarate="0" sector="Inside" id="171">
                    <mxCell style="rounded=0;whiteSpace=wrap;html=1;" parent="1" vertex="1">
                        <mxGeometry x="2460" y="340" width="120" height="60" as="geometry"/>
                    </mxCell>
                </object>
                <mxCell id="176" value="" style="edgeStyle=none;rounded=0;html=1;endArrow=none;endFill=0;" parent="1" source="173" target="175" edge="1">
                    <mxGeometry relative="1" as="geometry"/>
                </mxCell>
                <object label="%name%&lt;font color=&quot;#ff0000&quot;&gt;%pk%&lt;/font&gt;&lt;br&gt;(%room%)" placeholders="1" name="Burning Tunnel" room="14290" tags="indoors noport nobeacon" pk="" healrate="0" manarate="0" sector="Inside" id="173">
                    <mxCell style="rounded=0;whiteSpace=wrap;html=1;" parent="1" vertex="1">
                        <mxGeometry x="2620" y="340" width="120" height="60" as="geometry"/>
                    </mxCell>
                </object>
                <object label="%name%&lt;font color=&quot;#ff0000&quot;&gt;%pk%&lt;/font&gt;&lt;br&gt;(%room%)" placeholders="1" name="Before a Massive Door" room="14291" tags="indoors noport nobeacon" pk="" healrate="0" manarate="0" sector="Inside" id="175">
                    <mxCell style="rounded=0;whiteSpace=wrap;html=1;strokeColor=#FF0000;strokeWidth=2;" parent="1" vertex="1">
                        <mxGeometry x="2780" y="340" width="120" height="60" as="geometry"/>
                    </mxCell>
                </object>
                <mxCell id="177" value="" style="sketch=0;pointerEvents=1;shadow=0;dashed=0;html=1;labelPosition=center;verticalLabelPosition=bottom;verticalAlign=top;outlineConnect=0;align=center;shape=mxgraph.office.security.key_permissions;strokeWidth=1;direction=south;strokeColor=#000000;fillColor=#0000FF;" parent="1" vertex="1">
                    <mxGeometry x="2780.005" y="325.005" width="25" height="11.79" as="geometry"/>
                </mxCell>
                <object label="%name%&lt;font color=&quot;#ff0000&quot;&gt;%pk%&lt;/font&gt;&lt;br&gt;(%room%)" placeholders="1" name="Prison of Bhazhat" room="" tags="" pk="" healrate="" manarate="" sector="" id="178">
                    <mxCell style="rounded=0;whiteSpace=wrap;html=1;strokeColor=#FF0000;strokeWidth=2;" parent="1" vertex="1">
                        <mxGeometry x="2780" y="440" width="120" height="60" as="geometry"/>
                    </mxCell>
                </object>
                <mxCell id="179" value="" style="endArrow=none;html=1;rounded=0;shadow=0;sketch=0;strokeColor=default;jumpStyle=none;exitX=0.5;exitY=0;exitDx=0;exitDy=0;entryX=0.5;entryY=1;entryDx=0;entryDy=0;endFill=0;startArrow=classic;startFill=1;" parent="1" source="178" target="175" edge="1">
                    <mxGeometry relative="1" as="geometry">
                        <mxPoint x="2395" y="340" as="sourcePoint"/>
                        <mxPoint x="2575" y="340" as="targetPoint"/>
                    </mxGeometry>
                </mxCell>
                <mxCell id="180" value="" style="shape=mxgraph.office.security.lock_protected;html=1;outlineConnect=0;strokeColor=default;strokeWidth=1;fillColor=#0000FF;" parent="179" vertex="1">
                    <mxGeometry width="15" height="20" relative="1" as="geometry">
                        <mxPoint x="-7" y="-15" as="offset"/>
                    </mxGeometry>
                </mxCell>
                <mxCell id="181" value="Key on Limethe" style="text;html=1;strokeColor=none;fillColor=none;align=left;verticalAlign=middle;whiteSpace=wrap;rounded=0;" parent="1" vertex="1">
                    <mxGeometry x="2810" y="315.9" width="90" height="30" as="geometry"/>
                </mxCell>
                <mxCell id="286" style="edgeStyle=none;rounded=0;html=1;exitX=1;exitY=1;exitDx=0;exitDy=0;entryX=0;entryY=0;entryDx=0;entryDy=0;fontFamily=Tahoma;fontColor=#000000;startArrow=none;startFill=0;endArrow=classic;endFill=1;" parent="1" source="182" target="285" edge="1">
                    <mxGeometry relative="1" as="geometry"/>
                </mxCell>
                <object label="%name%&lt;font color=&quot;#ff0000&quot;&gt;%pk%&lt;/font&gt;&lt;br&gt;(%room%)" placeholders="1" name="Swimming through Lava" room="14302" tags="indoors norecall prison pk noport nobeacon" pk="&#10;[**&gt; PK &lt;**]" healrate="0" manarate="0" sector="Waterswim" id="182">
                    <mxCell style="rounded=0;whiteSpace=wrap;html=1;strokeColor=#000000;strokeWidth=1;fillColor=#CCFFFF;" parent="1" vertex="1">
                        <mxGeometry x="2300" y="440" width="120" height="60" as="geometry"/>
                    </mxCell>
                </object>
                <mxCell id="183" value="" style="endArrow=classic;html=1;rounded=0;shadow=0;sketch=0;fontSize=13;strokeColor=default;jumpStyle=none;jumpSize=6;verticalAlign=middle;horizontal=1;endFill=1;entryX=0;entryY=0;entryDx=0;entryDy=0;exitX=1;exitY=1;exitDx=0;exitDy=0;" parent="1" source="159" target="182" edge="1">
                    <mxGeometry relative="1" as="geometry">
                        <mxPoint x="2060" y="350" as="sourcePoint"/>
                        <mxPoint x="2100" y="310" as="targetPoint"/>
                    </mxGeometry>
                </mxCell>
                <mxCell id="184" value="&lt;div style=&quot;font-size: 20px;&quot;&gt;|&lt;/div&gt;" style="edgeLabel;resizable=0;html=1;align=center;verticalAlign=middle;fontSize=20;strokeColor=#630000;strokeWidth=1;fillColor=#FF0000;gradientColor=none;horizontal=1;labelBackgroundColor=none;direction=south;rotation=45;" parent="183" connectable="0" vertex="1">
                    <mxGeometry relative="1" as="geometry">
                        <mxPoint x="1" y="-4" as="offset"/>
                    </mxGeometry>
                </mxCell>
                <object label="%name%&lt;font color=&quot;#ff0000&quot;&gt;%pk%&lt;/font&gt;&lt;br&gt;(%room%)" placeholders="1" name="Luxurious Bedroom" room="14266" tags="indoors" pk="" healrate="100" manarate="100" sector="Inside" id="185">
                    <mxCell style="rounded=0;whiteSpace=wrap;html=1;" parent="1" vertex="1">
                        <mxGeometry x="860" y="640" width="120" height="60" as="geometry"/>
                    </mxCell>
                </object>
                <mxCell id="186" value="" style="endArrow=none;html=1;rounded=0;shadow=0;sketch=0;fontSize=13;strokeColor=default;jumpStyle=none;jumpSize=6;verticalAlign=middle;horizontal=1;endFill=0;entryX=0.5;entryY=1;entryDx=0;entryDy=0;exitX=0.5;exitY=0;exitDx=0;exitDy=0;" parent="1" source="123" target="185" edge="1">
                    <mxGeometry relative="1" as="geometry">
                        <mxPoint x="908" y="850" as="sourcePoint"/>
                        <mxPoint x="908" y="810" as="targetPoint"/>
                    </mxGeometry>
                </mxCell>
                <mxCell id="187" value="&lt;div style=&quot;font-size: 20px;&quot;&gt;|&lt;/div&gt;" style="edgeLabel;resizable=0;html=1;align=center;verticalAlign=middle;fontSize=20;strokeColor=#630000;strokeWidth=1;fillColor=#FF0000;gradientColor=none;horizontal=1;labelBackgroundColor=none;direction=south;rotation=-90;" parent="186" connectable="0" vertex="1">
                    <mxGeometry relative="1" as="geometry">
                        <mxPoint x="-3" y="2" as="offset"/>
                    </mxGeometry>
                </mxCell>
                <object label="%name%&lt;font color=&quot;#ff0000&quot;&gt;%pk%&lt;/font&gt;&lt;br&gt;(%room%)" placeholders="1" name="Luxurious Bedroom" room="14265" tags="indoors" pk="" healrate="100" manarate="100" sector="Inside" id="188">
                    <mxCell style="rounded=0;whiteSpace=wrap;html=1;" parent="1" vertex="1">
                        <mxGeometry x="860" y="840" width="120" height="60" as="geometry"/>
                    </mxCell>
                </object>
                <mxCell id="189" value="" style="endArrow=none;html=1;rounded=0;shadow=0;sketch=0;fontSize=13;strokeColor=default;jumpStyle=none;jumpSize=6;verticalAlign=middle;horizontal=1;endFill=0;entryX=0.5;entryY=1;entryDx=0;entryDy=0;exitX=0.5;exitY=0;exitDx=0;exitDy=0;" parent="1" source="188" target="123" edge="1">
                    <mxGeometry relative="1" as="geometry">
                        <mxPoint x="908" y="850" as="sourcePoint"/>
                        <mxPoint x="908" y="810" as="targetPoint"/>
                    </mxGeometry>
                </mxCell>
                <mxCell id="190" value="&lt;div style=&quot;font-size: 20px;&quot;&gt;|&lt;/div&gt;" style="edgeLabel;resizable=0;html=1;align=center;verticalAlign=middle;fontSize=20;strokeColor=#630000;strokeWidth=1;fillColor=#FF0000;gradientColor=none;horizontal=1;labelBackgroundColor=none;direction=south;rotation=-90;" parent="189" connectable="0" vertex="1">
                    <mxGeometry relative="1" as="geometry">
                        <mxPoint x="-3" y="2" as="offset"/>
                    </mxGeometry>
                </mxCell>
                <object label="%name%&lt;font color=&quot;#ff0000&quot;&gt;%pk%&lt;/font&gt;&lt;br&gt;(%room%)" placeholders="1" name="Resurrection chamber" room="14267" tags="indoors norecall prison" pk="" healrate="100" manarate="100" sector="Inside" id="191">
                    <mxCell style="rounded=0;whiteSpace=wrap;html=1;strokeColor=#FF0000;strokeWidth=2;fillColor=#CCFFFF;" parent="1" vertex="1">
                        <mxGeometry x="1020" y="740" width="120" height="60" as="geometry"/>
                    </mxCell>
                </object>
                <mxCell id="192" value="" style="endArrow=none;html=1;rounded=0;shadow=0;sketch=0;strokeColor=default;jumpStyle=none;exitX=1;exitY=0.5;exitDx=0;exitDy=0;entryX=0;entryY=0.5;entryDx=0;entryDy=0;endFill=0;" parent="1" source="123" target="191" edge="1">
                    <mxGeometry relative="1" as="geometry">
                        <mxPoint x="815" y="840" as="sourcePoint"/>
                        <mxPoint x="995" y="840" as="targetPoint"/>
                    </mxGeometry>
                </mxCell>
                <mxCell id="193" value="" style="shape=mxgraph.office.security.lock_protected;html=1;outlineConnect=0;strokeColor=default;strokeWidth=1;fillColor=#33FF33;" parent="192" vertex="1">
                    <mxGeometry width="15" height="20" relative="1" as="geometry">
                        <mxPoint x="-7" y="-10" as="offset"/>
                    </mxGeometry>
                </mxCell>
                <object label="%name%&lt;font color=&quot;#ff0000&quot;&gt;%pk%&lt;/font&gt;&lt;br&gt;(%room%)" placeholders="1" name="Banished Meeting Chamber" room="14262" tags="indoors norecall prison" pk="" healrate="100" manarate="100" sector="Inside" id="194">
                    <mxCell style="rounded=0;whiteSpace=wrap;html=1;strokeColor=#FF0000;strokeWidth=2;fillColor=#CCFFFF;" parent="1" vertex="1">
                        <mxGeometry x="540" y="940" width="120" height="60" as="geometry"/>
                    </mxCell>
                </object>
                <mxCell id="195" value="" style="sketch=0;pointerEvents=1;shadow=0;dashed=0;html=1;labelPosition=center;verticalLabelPosition=bottom;verticalAlign=top;outlineConnect=0;align=center;shape=mxgraph.office.security.key_permissions;strokeWidth=1;direction=south;strokeColor=#000000;fillColor=#33FF33;fontColor=#33FF33;" parent="1" vertex="1">
                    <mxGeometry x="539.9949999999999" y="904.9949999999999" width="25" height="11.79" as="geometry"/>
                </mxCell>
                <mxCell id="196" value="Key on Degiri" style="text;html=1;strokeColor=none;fillColor=none;align=left;verticalAlign=middle;whiteSpace=wrap;rounded=0;" parent="1" vertex="1">
                    <mxGeometry x="570" y="895.8900000000001" width="95" height="30" as="geometry"/>
                </mxCell>
                <mxCell id="197" value="" style="endArrow=none;html=1;rounded=0;shadow=0;sketch=0;fontSize=13;strokeColor=default;jumpStyle=none;jumpSize=6;verticalAlign=middle;horizontal=1;endFill=0;fontColor=#33FF33;entryX=1;entryY=0.5;entryDx=0;entryDy=0;exitX=0;exitY=0.5;exitDx=0;exitDy=0;" parent="1" source="117" target="194" edge="1">
                    <mxGeometry relative="1" as="geometry">
                        <mxPoint x="770" y="733" as="sourcePoint"/>
                        <mxPoint x="810" y="733" as="targetPoint"/>
                    </mxGeometry>
                </mxCell>
                <mxCell id="198" value="&lt;div style=&quot;font-size: 20px;&quot;&gt;|&lt;/div&gt;" style="edgeLabel;resizable=0;html=1;align=center;verticalAlign=middle;fontSize=20;strokeColor=#630000;strokeWidth=1;fillColor=#FF0000;gradientColor=none;horizontal=1;labelBackgroundColor=none;direction=south;rotation=0;fontColor=#000000;" parent="197" connectable="0" vertex="1">
                    <mxGeometry relative="1" as="geometry">
                        <mxPoint x="-2" y="-3" as="offset"/>
                    </mxGeometry>
                </mxCell>
                <object label="%name%&lt;font color=&quot;#ff0000&quot;&gt;%pk%&lt;/font&gt;&lt;br&gt;(%room%)" placeholders="1" name="Simple Room" room="14261" tags="indoors" pk="" healrate="100" manarate="100" sector="Inside" id="199">
                    <mxCell style="rounded=0;whiteSpace=wrap;html=1;strokeWidth=2;strokeColor=#FF0000;" parent="1" vertex="1">
                        <mxGeometry x="860" y="940" width="120" height="60" as="geometry"/>
                    </mxCell>
                </object>
                <mxCell id="200" value="" style="endArrow=none;html=1;rounded=0;shadow=0;sketch=0;fontSize=13;strokeColor=default;jumpStyle=none;jumpSize=6;verticalAlign=middle;horizontal=1;endFill=0;fontColor=#000000;entryX=0;entryY=0.5;entryDx=0;entryDy=0;exitX=1;exitY=0.5;exitDx=0;exitDy=0;" parent="1" source="117" target="199" edge="1">
                    <mxGeometry relative="1" as="geometry">
                        <mxPoint x="770" y="733" as="sourcePoint"/>
                        <mxPoint x="810" y="733" as="targetPoint"/>
                    </mxGeometry>
                </mxCell>
                <mxCell id="201" value="&lt;div style=&quot;font-size: 20px;&quot;&gt;|&lt;/div&gt;" style="edgeLabel;resizable=0;html=1;align=center;verticalAlign=middle;fontSize=20;strokeColor=#630000;strokeWidth=1;fillColor=#FF0000;gradientColor=none;horizontal=1;labelBackgroundColor=none;direction=south;rotation=0;fontColor=#000000;" parent="200" connectable="0" vertex="1">
                    <mxGeometry relative="1" as="geometry">
                        <mxPoint x="-2" y="-3" as="offset"/>
                    </mxGeometry>
                </mxCell>
                <mxCell id="202" value="" style="sketch=0;pointerEvents=1;shadow=0;dashed=0;html=1;labelPosition=center;verticalLabelPosition=bottom;verticalAlign=top;outlineConnect=0;align=center;shape=mxgraph.office.security.key_permissions;strokeWidth=1;direction=south;strokeColor=#000000;fillColor=#FFFF00;fontColor=#33FF33;" parent="1" vertex="1">
                    <mxGeometry x="859.9949999999999" y="924.9949999999999" width="25" height="11.79" as="geometry"/>
                </mxCell>
                <mxCell id="203" value="Key on floor" style="text;html=1;strokeColor=none;fillColor=none;align=left;verticalAlign=middle;whiteSpace=wrap;rounded=0;" parent="1" vertex="1">
                    <mxGeometry x="890" y="915.8900000000001" width="95" height="30" as="geometry"/>
                </mxCell>
                <mxCell id="204" value="" style="sketch=0;pointerEvents=1;shadow=0;dashed=0;html=1;labelPosition=center;verticalLabelPosition=bottom;verticalAlign=top;outlineConnect=0;align=center;shape=mxgraph.office.security.key_permissions;strokeWidth=1;direction=south;strokeColor=#000000;fillColor=#0000FF;" parent="1" vertex="1">
                    <mxGeometry x="540.0050000000001" y="923.885" width="25" height="11.79" as="geometry"/>
                </mxCell>
                <mxCell id="205" value="Key on Malkodu" style="text;html=1;strokeColor=none;fillColor=none;align=left;verticalAlign=middle;whiteSpace=wrap;rounded=0;" parent="1" vertex="1">
                    <mxGeometry x="570" y="914.78" width="90" height="30" as="geometry"/>
                </mxCell>
                <mxCell id="207" style="edgeStyle=none;rounded=0;html=1;exitX=1;exitY=0;exitDx=0;exitDy=0;entryX=0;entryY=1;entryDx=0;entryDy=0;fontColor=#000000;startArrow=none;startFill=0;endArrow=none;endFill=0;" parent="1" source="206" target="121" edge="1">
                    <mxGeometry relative="1" as="geometry"/>
                </mxCell>
                <object label="%name%&lt;font color=&quot;#ff0000&quot;&gt;%pk%&lt;/font&gt;&lt;br&gt;(%room%)" placeholders="1" name="Deep in the heart of darkness" room="14268" tags="nomobs indoors" pk="" healrate="100" manarate="100" sector="Inside" id="206">
                    <mxCell style="rounded=0;whiteSpace=wrap;html=1;" parent="1" vertex="1">
                        <mxGeometry x="380" y="840" width="120" height="60" as="geometry"/>
                    </mxCell>
                </object>
                <mxCell id="210" value="" style="edgeStyle=none;rounded=0;html=1;fontColor=#000000;startArrow=none;startFill=0;endArrow=none;endFill=0;" parent="1" source="208" target="209" edge="1">
                    <mxGeometry relative="1" as="geometry"/>
                </mxCell>
                <mxCell id="220" value="" style="edgeStyle=none;rounded=0;html=1;fontColor=#000000;startArrow=none;startFill=0;endArrow=none;endFill=0;" parent="1" source="208" target="211" edge="1">
                    <mxGeometry relative="1" as="geometry"/>
                </mxCell>
                <mxCell id="222" value="" style="edgeStyle=none;rounded=0;html=1;fontColor=#000000;startArrow=none;startFill=0;endArrow=none;endFill=0;" parent="1" source="208" target="221" edge="1">
                    <mxGeometry relative="1" as="geometry"/>
                </mxCell>
                <mxCell id="232" style="edgeStyle=none;rounded=0;html=1;exitX=0;exitY=0.5;exitDx=0;exitDy=0;entryX=1;entryY=0.5;entryDx=0;entryDy=0;fontColor=#000000;startArrow=none;startFill=0;endArrow=none;endFill=0;" parent="1" source="208" target="231" edge="1">
                    <mxGeometry relative="1" as="geometry"/>
                </mxCell>
                <mxCell id="304" style="edgeStyle=none;rounded=0;html=1;exitX=1;exitY=0;exitDx=0;exitDy=0;entryX=0;entryY=1;entryDx=0;entryDy=0;fontFamily=Helvetica;fontColor=#000000;startArrow=none;startFill=0;endArrow=none;endFill=0;" parent="1" source="208" target="206" edge="1">
                    <mxGeometry relative="1" as="geometry">
                        <Array as="points">
                            <mxPoint x="200" y="920"/>
                            <mxPoint x="360" y="920"/>
                        </Array>
                    </mxGeometry>
                </mxCell>
                <object label="%name%&lt;font color=&quot;#ff0000&quot;&gt;%pk%&lt;/font&gt;&lt;br&gt;(%room%)" placeholders="1" name="Center of dungeon" room="14269" tags="indoors" pk="" healrate="100" manarate="100" sector="Inside" id="208">
                    <mxCell style="rounded=0;whiteSpace=wrap;html=1;" parent="1" vertex="1">
                        <mxGeometry x="60" y="940" width="120" height="60" as="geometry"/>
                    </mxCell>
                </object>
                <object label="%name%&lt;font color=&quot;#ff0000&quot;&gt;%pk%&lt;/font&gt;&lt;br&gt;(%room%)" placeholders="1" name="East wing of dungeon" room="14273" tags="indoors" pk="" healrate="100" manarate="100" sector="Inside" id="209">
                    <mxCell style="rounded=0;whiteSpace=wrap;html=1;" parent="1" vertex="1">
                        <mxGeometry x="220.01" y="940" width="120" height="60" as="geometry"/>
                    </mxCell>
                </object>
                <object label="%name%&lt;font color=&quot;#ff0000&quot;&gt;%pk%&lt;/font&gt;&lt;br&gt;(%room%)" placeholders="1" name="North wing of dungeon" room="14270" tags="indoors" pk="" healrate="100" manarate="100" sector="Inside" id="211">
                    <mxCell style="rounded=0;whiteSpace=wrap;html=1;" parent="1" vertex="1">
                        <mxGeometry x="60" y="840" width="120" height="60" as="geometry"/>
                    </mxCell>
                </object>
                <mxCell id="212" value="" style="sketch=0;pointerEvents=1;shadow=0;dashed=0;html=1;labelPosition=center;verticalLabelPosition=bottom;verticalAlign=top;outlineConnect=0;align=center;shape=mxgraph.office.security.key_permissions;strokeWidth=1;direction=south;strokeColor=#000000;fillColor=#FF0000;" parent="1" vertex="1">
                    <mxGeometry x="665.0050000000001" y="723.885" width="25" height="11.79" as="geometry"/>
                </mxCell>
                <mxCell id="213" value="Key on a vicious guard dog" style="text;html=1;strokeColor=none;fillColor=none;align=left;verticalAlign=middle;whiteSpace=wrap;rounded=0;" parent="1" vertex="1">
                    <mxGeometry x="695" y="714.78" width="150" height="30" as="geometry"/>
                </mxCell>
                <object label="%name%&lt;font color=&quot;#ff0000&quot;&gt;%pk%&lt;/font&gt;&lt;br&gt;(%room%)" placeholders="1" name="Cell" room="14272" tags="indoors norecall prison" pk="" healrate="100" manarate="100" sector="Inside" id="214">
                    <mxCell style="rounded=0;whiteSpace=wrap;html=1;fillColor=#CCFFFF;" parent="1" vertex="1">
                        <mxGeometry x="220" y="840" width="120" height="60" as="geometry"/>
                    </mxCell>
                </object>
                <mxCell id="215" value="" style="endArrow=none;html=1;rounded=0;shadow=0;sketch=0;strokeColor=default;jumpStyle=none;exitX=1;exitY=0.5;exitDx=0;exitDy=0;entryX=0;entryY=0.5;entryDx=0;entryDy=0;endFill=0;fontColor=#000000;" parent="1" source="211" target="214" edge="1">
                    <mxGeometry relative="1" as="geometry">
                        <mxPoint x="50" y="1035" as="sourcePoint"/>
                        <mxPoint x="230" y="1035" as="targetPoint"/>
                    </mxGeometry>
                </mxCell>
                <mxCell id="216" value="" style="shape=mxgraph.office.security.lock_protected;html=1;outlineConnect=0;strokeColor=default;strokeWidth=1;fillColor=#FF0000;fontColor=#000000;" parent="215" vertex="1">
                    <mxGeometry width="15" height="20" relative="1" as="geometry">
                        <mxPoint x="-7" y="-10" as="offset"/>
                    </mxGeometry>
                </mxCell>
                <object label="%name%&lt;font color=&quot;#ff0000&quot;&gt;%pk%&lt;/font&gt;&lt;br&gt;(%room%)" placeholders="1" name="Cell" room="14271" tags="indoors norecall prison" pk="" healrate="100" manarate="100" sector="Inside" id="217">
                    <mxCell style="rounded=0;whiteSpace=wrap;html=1;fillColor=#CCFFFF;" parent="1" vertex="1">
                        <mxGeometry x="-100" y="840" width="120" height="60" as="geometry"/>
                    </mxCell>
                </object>
                <mxCell id="218" value="" style="endArrow=none;html=1;rounded=0;shadow=0;sketch=0;strokeColor=default;jumpStyle=none;exitX=1;exitY=0.5;exitDx=0;exitDy=0;entryX=0;entryY=0.5;entryDx=0;entryDy=0;endFill=0;fontColor=#000000;" parent="1" source="217" target="211" edge="1">
                    <mxGeometry relative="1" as="geometry">
                        <mxPoint x="50" y="1035" as="sourcePoint"/>
                        <mxPoint x="230" y="1035" as="targetPoint"/>
                    </mxGeometry>
                </mxCell>
                <mxCell id="219" value="" style="shape=mxgraph.office.security.lock_protected;html=1;outlineConnect=0;strokeColor=default;strokeWidth=1;fillColor=#FF0000;fontColor=#000000;" parent="218" vertex="1">
                    <mxGeometry width="15" height="20" relative="1" as="geometry">
                        <mxPoint x="-7" y="-10" as="offset"/>
                    </mxGeometry>
                </mxCell>
                <object label="%name%&lt;font color=&quot;#ff0000&quot;&gt;%pk%&lt;/font&gt;&lt;br&gt;(%room%)" placeholders="1" name="South wing of dungeon" room="14277" tags="indoors" pk="" healrate="100" manarate="100" sector="Inside" id="221">
                    <mxCell style="rounded=0;whiteSpace=wrap;html=1;" parent="1" vertex="1">
                        <mxGeometry x="60" y="1040" width="120" height="60" as="geometry"/>
                    </mxCell>
                </object>
                <object label="%name%&lt;font color=&quot;#ff0000&quot;&gt;%pk%&lt;/font&gt;&lt;br&gt;(%room%)" placeholders="1" name="Cell" room="14278" tags="indoors norecall prison" pk="" healrate="100" manarate="100" sector="Inside" id="223">
                    <mxCell style="rounded=0;whiteSpace=wrap;html=1;fillColor=#CCFFFF;" parent="1" vertex="1">
                        <mxGeometry x="219.99" y="1040" width="120" height="60" as="geometry"/>
                    </mxCell>
                </object>
                <object label="%name%&lt;font color=&quot;#ff0000&quot;&gt;%pk%&lt;/font&gt;&lt;br&gt;(%room%)" placeholders="1" name="Cell" room="14280" tags="indoors prison" pk="" healrate="100" manarate="100" sector="Inside" id="224">
                    <mxCell style="rounded=0;whiteSpace=wrap;html=1;fillColor=#CCFFFF;" parent="1" vertex="1">
                        <mxGeometry x="-100" y="1040" width="120" height="60" as="geometry"/>
                    </mxCell>
                </object>
                <mxCell id="227" value="" style="endArrow=none;html=1;rounded=0;shadow=0;sketch=0;strokeColor=default;jumpStyle=none;exitX=1;exitY=0.5;exitDx=0;exitDy=0;entryX=0;entryY=0.5;entryDx=0;entryDy=0;endFill=0;fontColor=#000000;" parent="1" source="221" target="223" edge="1">
                    <mxGeometry relative="1" as="geometry">
                        <mxPoint x="185" y="875" as="sourcePoint"/>
                        <mxPoint x="225" y="875" as="targetPoint"/>
                    </mxGeometry>
                </mxCell>
                <mxCell id="228" value="" style="shape=mxgraph.office.security.lock_protected;html=1;outlineConnect=0;strokeColor=default;strokeWidth=1;fillColor=#FF0000;fontColor=#000000;" parent="227" vertex="1">
                    <mxGeometry width="15" height="20" relative="1" as="geometry">
                        <mxPoint x="-7" y="-10" as="offset"/>
                    </mxGeometry>
                </mxCell>
                <mxCell id="229" value="" style="endArrow=none;html=1;rounded=0;shadow=0;sketch=0;strokeColor=default;jumpStyle=none;exitX=0;exitY=0.5;exitDx=0;exitDy=0;entryX=1;entryY=0.5;entryDx=0;entryDy=0;endFill=0;fontColor=#000000;" parent="1" source="221" target="224" edge="1">
                    <mxGeometry relative="1" as="geometry">
                        <mxPoint x="190" y="880" as="sourcePoint"/>
                        <mxPoint x="230" y="880" as="targetPoint"/>
                    </mxGeometry>
                </mxCell>
                <mxCell id="230" value="" style="shape=mxgraph.office.security.lock_protected;html=1;outlineConnect=0;strokeColor=default;strokeWidth=1;fillColor=#FF0000;fontColor=#000000;" parent="229" vertex="1">
                    <mxGeometry width="15" height="20" relative="1" as="geometry">
                        <mxPoint x="-7" y="-10" as="offset"/>
                    </mxGeometry>
                </mxCell>
                <object label="%name%&lt;font color=&quot;#ff0000&quot;&gt;%pk%&lt;/font&gt;&lt;br&gt;(%room%)" placeholders="1" name="West wing of dungeon" room="14274" tags="indoors" pk="" healrate="100" manarate="100" sector="Inside" id="231">
                    <mxCell style="rounded=0;whiteSpace=wrap;html=1;" parent="1" vertex="1">
                        <mxGeometry x="-260" y="940" width="120" height="60" as="geometry"/>
                    </mxCell>
                </object>
                <object label="%name%&lt;font color=&quot;#ff0000&quot;&gt;%pk%&lt;/font&gt;&lt;br&gt;(%room%)" placeholders="1" name="Cell" room="14275" tags="indoors norecall prison" pk="" healrate="100" manarate="100" sector="Inside" id="233">
                    <mxCell style="rounded=0;whiteSpace=wrap;html=1;fillColor=#CCFFFF;" parent="1" vertex="1">
                        <mxGeometry x="-260" y="840" width="120" height="60" as="geometry"/>
                    </mxCell>
                </object>
                <object label="%name%&lt;font color=&quot;#ff0000&quot;&gt;%pk%&lt;/font&gt;&lt;br&gt;(%room%)" placeholders="1" name="Cell" room="14276" tags="indoors norecall prison" pk="" healrate="100" manarate="100" sector="Inside" id="234">
                    <mxCell style="rounded=0;whiteSpace=wrap;html=1;fillColor=#CCFFFF;" parent="1" vertex="1">
                        <mxGeometry x="-260" y="1040" width="120" height="60" as="geometry"/>
                    </mxCell>
                </object>
                <mxCell id="235" value="" style="endArrow=none;html=1;rounded=0;shadow=0;sketch=0;strokeColor=default;jumpStyle=none;exitX=0.5;exitY=0;exitDx=0;exitDy=0;entryX=0.5;entryY=1;entryDx=0;entryDy=0;endFill=0;fontColor=#000000;" parent="1" source="231" target="233" edge="1">
                    <mxGeometry relative="1" as="geometry">
                        <mxPoint x="25" y="875" as="sourcePoint"/>
                        <mxPoint x="65" y="875" as="targetPoint"/>
                    </mxGeometry>
                </mxCell>
                <mxCell id="236" value="" style="shape=mxgraph.office.security.lock_protected;html=1;outlineConnect=0;strokeColor=default;strokeWidth=1;fillColor=#FF0000;fontColor=#000000;" parent="235" vertex="1">
                    <mxGeometry width="15" height="20" relative="1" as="geometry">
                        <mxPoint x="-7" y="-10" as="offset"/>
                    </mxGeometry>
                </mxCell>
                <mxCell id="237" value="" style="endArrow=none;html=1;rounded=0;shadow=0;sketch=0;strokeColor=default;jumpStyle=none;exitX=0.5;exitY=1;exitDx=0;exitDy=0;entryX=0.5;entryY=0;entryDx=0;entryDy=0;endFill=0;fontColor=#000000;" parent="1" source="231" target="234" edge="1">
                    <mxGeometry relative="1" as="geometry">
                        <mxPoint x="30" y="880" as="sourcePoint"/>
                        <mxPoint x="70" y="880" as="targetPoint"/>
                    </mxGeometry>
                </mxCell>
                <mxCell id="238" value="" style="shape=mxgraph.office.security.lock_protected;html=1;outlineConnect=0;strokeColor=default;strokeWidth=1;fillColor=#FF0000;fontColor=#000000;" parent="237" vertex="1">
                    <mxGeometry width="15" height="20" relative="1" as="geometry">
                        <mxPoint x="-7" y="-10" as="offset"/>
                    </mxGeometry>
                </mxCell>
                <object label="%name%&lt;font color=&quot;#ff0000&quot;&gt;%pk%&lt;/font&gt;&lt;br&gt;(%room%)" placeholders="1" name="Large Cell" room="" tags="" pk="" healrate="" manarate="" sector="" id="239">
                    <mxCell style="rounded=0;whiteSpace=wrap;html=1;" parent="1" vertex="1">
                        <mxGeometry x="380" y="940" width="120" height="60" as="geometry"/>
                    </mxCell>
                </object>
                <mxCell id="240" value="" style="endArrow=none;html=1;rounded=0;shadow=0;sketch=0;strokeColor=default;jumpStyle=none;exitX=1;exitY=0.5;exitDx=0;exitDy=0;entryX=0;entryY=0.5;entryDx=0;entryDy=0;endFill=0;fontColor=#000000;" parent="1" source="209" target="239" edge="1">
                    <mxGeometry relative="1" as="geometry">
                        <mxPoint x="50" y="1035" as="sourcePoint"/>
                        <mxPoint x="230" y="1035" as="targetPoint"/>
                    </mxGeometry>
                </mxCell>
                <mxCell id="241" value="" style="shape=mxgraph.office.security.lock_protected;html=1;outlineConnect=0;strokeColor=default;strokeWidth=1;fillColor=#FFFF00;fontColor=#000000;" parent="240" vertex="1">
                    <mxGeometry width="15" height="20" relative="1" as="geometry">
                        <mxPoint x="-7" y="-10" as="offset"/>
                    </mxGeometry>
                </mxCell>
                <mxCell id="245" value="" style="edgeStyle=none;rounded=0;html=1;fontColor=#00CCCC;startArrow=none;startFill=0;endArrow=none;endFill=0;" parent="1" source="242" target="244" edge="1">
                    <mxGeometry relative="1" as="geometry"/>
                </mxCell>
                <object label="%name%&lt;font color=&quot;#ff0000&quot;&gt;%pk%&lt;/font&gt;&lt;br&gt;(%room%)" placeholders="1" name="The Dream Plane" room="14293" tags="nobeacon" pk="" healrate="100" manarate="100" sector="Air" id="242">
                    <mxCell style="rounded=0;whiteSpace=wrap;html=1;" parent="1" vertex="1">
                        <mxGeometry x="1180" y="40" width="120" height="60" as="geometry"/>
                    </mxCell>
                </object>
                <mxCell id="243" value="&lt;b&gt;&lt;font face=&quot;Tahoma&quot;&gt;horn of the &lt;font color=&quot;#00cccc&quot;&gt;AN&lt;/font&gt;&lt;font color=&quot;#007fff&quot;&gt;CE&lt;/font&gt;&lt;font color=&quot;#ff0000&quot;&gt;ST&lt;/font&gt;&lt;font color=&quot;#007fff&quot;&gt;OR&lt;/font&gt;&lt;font color=&quot;#00cccc&quot;&gt;S&lt;/font&gt;&lt;/font&gt;&lt;/b&gt;&lt;br&gt;portal leads here" style="text;html=1;strokeColor=default;fillColor=default;align=center;verticalAlign=middle;whiteSpace=wrap;rounded=0;fontColor=#000000;gradientColor=none;dashed=1;spacing=6;" parent="1" vertex="1">
                    <mxGeometry x="1321" y="45" width="155" height="50" as="geometry"/>
                </mxCell>
                <mxCell id="260" value="" style="edgeStyle=none;rounded=0;html=1;fontColor=#00CCCC;startArrow=none;startFill=0;endArrow=none;endFill=0;" parent="1" source="244" target="250" edge="1">
                    <mxGeometry relative="1" as="geometry"/>
                </mxCell>
                <mxCell id="261" value="" style="edgeStyle=none;rounded=0;html=1;fontColor=#00CCCC;startArrow=none;startFill=0;endArrow=none;endFill=0;" parent="1" source="244" target="251" edge="1">
                    <mxGeometry relative="1" as="geometry"/>
                </mxCell>
                <object label="%name%&lt;font color=&quot;#ff0000&quot;&gt;%pk%&lt;/font&gt;&lt;br&gt;(%room%)" placeholders="1" name="The Dream Plane" room="14294" tags="noport nobeacon" pk="" healrate="100" manarate="100" sector="Air" id="244">
                    <mxCell style="rounded=0;whiteSpace=wrap;html=1;strokeColor=#0000FF;strokeWidth=2;" parent="1" vertex="1">
                        <mxGeometry x="1180" y="140" width="120" height="60" as="geometry"/>
                    </mxCell>
                </object>
                <mxCell id="249" value="" style="edgeStyle=none;rounded=0;html=1;fontColor=#00CCCC;startArrow=none;startFill=0;endArrow=none;endFill=0;" parent="1" source="246" target="244" edge="1">
                    <mxGeometry relative="1" as="geometry"/>
                </mxCell>
                <mxCell id="256" style="edgeStyle=none;rounded=0;html=1;exitX=1;exitY=0.5;exitDx=0;exitDy=0;entryX=0;entryY=0.5;entryDx=0;entryDy=0;fontColor=#00CCCC;startArrow=none;startFill=0;endArrow=none;endFill=0;" parent="1" source="246" target="253" edge="1">
                    <mxGeometry relative="1" as="geometry"/>
                </mxCell>
                <mxCell id="257" value="" style="edgeStyle=none;rounded=0;html=1;fontColor=#00CCCC;startArrow=none;startFill=0;endArrow=none;endFill=0;" parent="1" source="246" target="252" edge="1">
                    <mxGeometry relative="1" as="geometry"/>
                </mxCell>
                <object label="%name%&lt;font color=&quot;#ff0000&quot;&gt;%pk%&lt;/font&gt;&lt;br&gt;(%room%)" placeholders="1" name="The Dream Plane" room="14297" tags="noport nobeacon" pk="" healrate="100" manarate="100" sector="Air" id="246">
                    <mxCell style="rounded=0;whiteSpace=wrap;html=1;strokeColor=#0000FF;strokeWidth=2;" parent="1" vertex="1">
                        <mxGeometry x="1180" y="240" width="120" height="60" as="geometry"/>
                    </mxCell>
                </object>
                <mxCell id="248" value="" style="edgeStyle=none;rounded=0;html=1;fontColor=#00CCCC;startArrow=none;startFill=0;endArrow=none;endFill=0;" parent="1" source="247" target="246" edge="1">
                    <mxGeometry relative="1" as="geometry"/>
                </mxCell>
                <object label="%name%&lt;font color=&quot;#ff0000&quot;&gt;%pk%&lt;/font&gt;&lt;br&gt;(%room%)" placeholders="1" name="The Dream Plane" room="14300" tags="nomobs nobeacon" pk="" healrate="100" manarate="100" sector="Air" id="247">
                    <mxCell style="rounded=0;whiteSpace=wrap;html=1;" parent="1" vertex="1">
                        <mxGeometry x="1180" y="340" width="120" height="60" as="geometry"/>
                    </mxCell>
                </object>
                <mxCell id="273" style="edgeStyle=none;rounded=0;html=1;exitX=1;exitY=0.5;exitDx=0;exitDy=0;entryX=0;entryY=0.5;entryDx=0;entryDy=0;fontColor=#000000;startArrow=none;startFill=0;endArrow=none;endFill=0;" parent="1" source="250" target="272" edge="1">
                    <mxGeometry relative="1" as="geometry"/>
                </mxCell>
                <mxCell id="280" value="" style="edgeStyle=none;rounded=0;html=1;fontColor=#000000;startArrow=none;startFill=0;endArrow=none;endFill=0;" parent="1" source="250" target="270" edge="1">
                    <mxGeometry relative="1" as="geometry"/>
                </mxCell>
                <object label="%name%&lt;font color=&quot;#ff0000&quot;&gt;%pk%&lt;/font&gt;&lt;br&gt;(%room%)" placeholders="1" name="The Dream Plane" room="14295" tags="noport nobeacon" pk="" healrate="100" manarate="100" sector="Air" id="250">
                    <mxCell style="rounded=0;whiteSpace=wrap;html=1;strokeColor=#0000FF;strokeWidth=2;" parent="1" vertex="1">
                        <mxGeometry x="1340" y="140" width="120" height="60" as="geometry"/>
                    </mxCell>
                </object>
                <mxCell id="262" value="" style="edgeStyle=none;rounded=0;html=1;fontColor=#00CCCC;startArrow=none;startFill=0;endArrow=none;endFill=0;" parent="1" source="251" target="252" edge="1">
                    <mxGeometry relative="1" as="geometry"/>
                </mxCell>
                <object label="%name%&lt;font color=&quot;#ff0000&quot;&gt;%pk%&lt;/font&gt;&lt;br&gt;(%room%)" placeholders="1" name="The Dream Plane" room="14296" tags="noport nobeacon" pk="" healrate="100" manarate="100" sector="Air" id="251">
                    <mxCell style="rounded=0;whiteSpace=wrap;html=1;strokeColor=#0000FF;strokeWidth=2;" parent="1" vertex="1">
                        <mxGeometry x="1020" y="140" width="120" height="60" as="geometry"/>
                    </mxCell>
                </object>
                <object label="%name%&lt;font color=&quot;#ff0000&quot;&gt;%pk%&lt;/font&gt;&lt;br&gt;(%room%)" placeholders="1" name="The Dream Plane" room="14298" tags="noport nobeacon" pk="" healrate="100" manarate="100" sector="Air" id="252">
                    <mxCell style="rounded=0;whiteSpace=wrap;html=1;strokeColor=#0000FF;strokeWidth=2;" parent="1" vertex="1">
                        <mxGeometry x="1020" y="240" width="120" height="60" as="geometry"/>
                    </mxCell>
                </object>
                <mxCell id="279" style="edgeStyle=none;rounded=0;html=1;exitX=1;exitY=0.5;exitDx=0;exitDy=0;entryX=0;entryY=0.5;entryDx=0;entryDy=0;fontColor=#000000;startArrow=none;startFill=0;endArrow=none;endFill=0;" parent="1" source="253" target="278" edge="1">
                    <mxGeometry relative="1" as="geometry"/>
                </mxCell>
                <object label="%name%&lt;font color=&quot;#ff0000&quot;&gt;%pk%&lt;/font&gt;&lt;br&gt;(%room%)" placeholders="1" name="The Dream Plane" room="14299" tags="noport nobeacon" pk="" healrate="100" manarate="100" sector="Air" id="253">
                    <mxCell style="rounded=0;whiteSpace=wrap;html=1;strokeColor=#0000FF;strokeWidth=2;" parent="1" vertex="1">
                        <mxGeometry x="1340" y="240" width="120" height="60" as="geometry"/>
                    </mxCell>
                </object>
                <mxCell id="264" style="edgeStyle=none;rounded=0;html=1;exitX=0.5;exitY=1;exitDx=0;exitDy=0;entryX=0.5;entryY=0;entryDx=0;entryDy=0;fontColor=#000000;startArrow=none;startFill=0;endArrow=none;endFill=0;" parent="1" source="263" target="251" edge="1">
                    <mxGeometry relative="1" as="geometry"/>
                </mxCell>
                <mxCell id="263" value="B" style="ellipse;whiteSpace=wrap;html=1;aspect=fixed;strokeColor=#000000;strokeWidth=1;fillColor=none;gradientColor=none;fontColor=#000000;" parent="1" vertex="1">
                    <mxGeometry x="1070" y="110" width="20" height="20" as="geometry"/>
                </mxCell>
                <mxCell id="266" value="" style="edgeStyle=none;rounded=0;html=1;fontColor=#000000;startArrow=none;startFill=0;endArrow=none;endFill=0;" parent="1" source="265" target="252" edge="1">
                    <mxGeometry relative="1" as="geometry"/>
                </mxCell>
                <mxCell id="265" value="B" style="ellipse;whiteSpace=wrap;html=1;aspect=fixed;strokeColor=#000000;strokeWidth=1;fillColor=none;gradientColor=none;fontColor=#000000;" parent="1" vertex="1">
                    <mxGeometry x="1070" y="310" width="20" height="20" as="geometry"/>
                </mxCell>
                <mxCell id="269" style="edgeStyle=none;rounded=0;html=1;exitX=0.5;exitY=1;exitDx=0;exitDy=0;entryX=0.5;entryY=0;entryDx=0;entryDy=0;fontColor=#000000;startArrow=none;startFill=0;endArrow=none;endFill=0;" parent="1" source="267" target="250" edge="1">
                    <mxGeometry relative="1" as="geometry"/>
                </mxCell>
                <mxCell id="267" value="C" style="ellipse;whiteSpace=wrap;html=1;aspect=fixed;strokeColor=#000000;strokeWidth=1;fillColor=none;gradientColor=none;fontColor=#000000;" parent="1" vertex="1">
                    <mxGeometry x="1390" y="110" width="20" height="20" as="geometry"/>
                </mxCell>
                <mxCell id="271" style="edgeStyle=none;rounded=0;html=1;exitX=0.5;exitY=0;exitDx=0;exitDy=0;entryX=0.5;entryY=1;entryDx=0;entryDy=0;fontColor=#000000;startArrow=none;startFill=0;endArrow=none;endFill=0;" parent="1" source="270" target="253" edge="1">
                    <mxGeometry relative="1" as="geometry"/>
                </mxCell>
                <mxCell id="270" value="C" style="ellipse;whiteSpace=wrap;html=1;aspect=fixed;strokeColor=#000000;strokeWidth=1;fillColor=none;gradientColor=none;fontColor=#000000;" parent="1" vertex="1">
                    <mxGeometry x="1390" y="310" width="20" height="20" as="geometry"/>
                </mxCell>
                <mxCell id="272" value="D" style="ellipse;whiteSpace=wrap;html=1;aspect=fixed;strokeColor=#000000;strokeWidth=1;fillColor=none;gradientColor=none;fontColor=#000000;" parent="1" vertex="1">
                    <mxGeometry x="1480" y="160" width="20" height="20" as="geometry"/>
                </mxCell>
                <mxCell id="275" style="edgeStyle=none;rounded=0;html=1;exitX=1;exitY=0.5;exitDx=0;exitDy=0;entryX=0;entryY=0.5;entryDx=0;entryDy=0;fontColor=#000000;startArrow=none;startFill=0;endArrow=none;endFill=0;" parent="1" source="274" target="251" edge="1">
                    <mxGeometry relative="1" as="geometry"/>
                </mxCell>
                <mxCell id="274" value="D" style="ellipse;whiteSpace=wrap;html=1;aspect=fixed;strokeColor=#000000;strokeWidth=1;fillColor=none;gradientColor=none;fontColor=#000000;" parent="1" vertex="1">
                    <mxGeometry x="980" y="160" width="20" height="20" as="geometry"/>
                </mxCell>
                <mxCell id="277" style="edgeStyle=none;rounded=0;html=1;exitX=1;exitY=0.5;exitDx=0;exitDy=0;entryX=0;entryY=0.5;entryDx=0;entryDy=0;fontColor=#000000;startArrow=none;startFill=0;endArrow=none;endFill=0;" parent="1" source="276" target="252" edge="1">
                    <mxGeometry relative="1" as="geometry"/>
                </mxCell>
                <mxCell id="276" value="E" style="ellipse;whiteSpace=wrap;html=1;aspect=fixed;strokeColor=#000000;strokeWidth=1;fillColor=none;gradientColor=none;fontColor=#000000;" parent="1" vertex="1">
                    <mxGeometry x="980" y="260" width="20" height="20" as="geometry"/>
                </mxCell>
                <mxCell id="278" value="E" style="ellipse;whiteSpace=wrap;html=1;aspect=fixed;strokeColor=#000000;strokeWidth=1;fillColor=none;gradientColor=none;fontColor=#000000;" parent="1" vertex="1">
                    <mxGeometry x="1480" y="260" width="20" height="20" as="geometry"/>
                </mxCell>
                <mxCell id="288" style="edgeStyle=none;rounded=0;html=1;exitX=1;exitY=0;exitDx=0;exitDy=0;entryX=0;entryY=1;entryDx=0;entryDy=0;fontFamily=Tahoma;fontColor=#000000;startArrow=none;startFill=0;endArrow=classic;endFill=1;" parent="1" source="285" target="287" edge="1">
                    <mxGeometry relative="1" as="geometry"/>
                </mxCell>
                <object label="%name%&lt;font color=&quot;#ff0000&quot;&gt;%pk%&lt;/font&gt;&lt;br&gt;(%room%)" placeholders="1" name="Swimming through Lava" room="14303" tags="indoors norecall prison pk noport nobeacon" pk="&#10;[**&gt; PK &lt;**]" healrate="0" manarate="0" sector="Waterswim" id="285">
                    <mxCell style="rounded=0;whiteSpace=wrap;html=1;strokeColor=#000000;strokeWidth=1;fillColor=#CCFFFF;" parent="1" vertex="1">
                        <mxGeometry x="2460" y="540" width="120" height="60" as="geometry"/>
                    </mxCell>
                </object>
                <mxCell id="290" style="edgeStyle=none;rounded=0;html=1;exitX=1;exitY=1;exitDx=0;exitDy=0;entryX=0;entryY=0;entryDx=0;entryDy=0;fontFamily=Tahoma;fontColor=#000000;startArrow=none;startFill=0;endArrow=classic;endFill=1;" parent="1" source="287" target="289" edge="1">
                    <mxGeometry relative="1" as="geometry"/>
                </mxCell>
                <object label="%name%&lt;font color=&quot;#ff0000&quot;&gt;%pk%&lt;/font&gt;&lt;br&gt;(%room%)" placeholders="1" name="Swimming through Lava" room="14304" tags="indoors norecall prison pk noport nobeacon" pk="&#10;[**&gt; PK &lt;**]" healrate="0" manarate="0" sector="Waterswim" id="287">
                    <mxCell style="rounded=0;whiteSpace=wrap;html=1;strokeColor=#000000;strokeWidth=1;fillColor=#CCFFFF;" parent="1" vertex="1">
                        <mxGeometry x="2620" y="440" width="120" height="60" as="geometry"/>
                    </mxCell>
                </object>
                <mxCell id="292" style="edgeStyle=none;rounded=0;html=1;exitX=0;exitY=1;exitDx=0;exitDy=0;entryX=1;entryY=0;entryDx=0;entryDy=0;fontFamily=Tahoma;fontColor=#000000;startArrow=none;startFill=0;endArrow=classic;endFill=1;" parent="1" source="289" target="291" edge="1">
                    <mxGeometry relative="1" as="geometry"/>
                </mxCell>
                <object label="%name%&lt;font color=&quot;#ff0000&quot;&gt;%pk%&lt;/font&gt;&lt;br&gt;(%room%)" placeholders="1" name="Swimming through Lava" room="14305" tags="indoors norecall prison pk noport nobeacon" pk="&#10;[**&gt; PK &lt;**]" healrate="0" manarate="0" sector="Waterswim" id="289">
                    <mxCell style="rounded=0;whiteSpace=wrap;html=1;strokeColor=#000000;strokeWidth=1;fillColor=#CCFFFF;" parent="1" vertex="1">
                        <mxGeometry x="2780.01" y="540" width="120" height="60" as="geometry"/>
                    </mxCell>
                </object>
                <mxCell id="294" style="edgeStyle=none;rounded=0;html=1;exitX=0;exitY=1;exitDx=0;exitDy=0;entryX=1;entryY=0;entryDx=0;entryDy=0;fontFamily=Tahoma;fontColor=#000000;startArrow=none;startFill=0;endArrow=classic;endFill=1;" parent="1" source="291" target="293" edge="1">
                    <mxGeometry relative="1" as="geometry"/>
                </mxCell>
                <object label="%name%&lt;font color=&quot;#ff0000&quot;&gt;%pk%&lt;/font&gt;&lt;br&gt;(%room%)" placeholders="1" name="Swimming through Lava" room="14306" tags="indoors norecall prison pk noport nobeacon" pk="&#10;[**&gt; PK &lt;**]" healrate="0" manarate="0" sector="Waterswim" id="291">
                    <mxCell style="rounded=0;whiteSpace=wrap;html=1;strokeColor=#000000;strokeWidth=1;fillColor=#CCFFFF;" parent="1" vertex="1">
                        <mxGeometry x="2620" y="640" width="120" height="60" as="geometry"/>
                    </mxCell>
                </object>
                <mxCell id="296" style="edgeStyle=none;rounded=0;html=1;exitX=0;exitY=0;exitDx=0;exitDy=0;entryX=1;entryY=1;entryDx=0;entryDy=0;fontFamily=Tahoma;fontColor=#000000;startArrow=none;startFill=0;endArrow=classic;endFill=1;" parent="1" source="293" target="295" edge="1">
                    <mxGeometry relative="1" as="geometry"/>
                </mxCell>
                <object label="%name%&lt;font color=&quot;#ff0000&quot;&gt;%pk%&lt;/font&gt;&lt;br&gt;(%room%)" placeholders="1" name="Swimming through Lava" room="14307" tags="indoors norecall prison pk noport nobeacon" pk="&#10;[**&gt; PK &lt;**]" healrate="0" manarate="0" sector="Waterswim" id="293">
                    <mxCell style="rounded=0;whiteSpace=wrap;html=1;strokeColor=#000000;strokeWidth=1;fillColor=#CCFFFF;" parent="1" vertex="1">
                        <mxGeometry x="2460" y="740" width="120" height="60" as="geometry"/>
                    </mxCell>
                </object>
                <object label="%name%&lt;font color=&quot;#ff0000&quot;&gt;%pk%&lt;/font&gt;&lt;br&gt;(%room%)" placeholders="1" name="Swimming through Lava" room="14308" tags="indoors norecall prison pk noport nobeacon" pk="&#10;[**&gt; PK &lt;**]" healrate="0" manarate="0" sector="Waterswim" id="295">
                    <mxCell style="rounded=0;whiteSpace=wrap;html=1;strokeColor=#000000;strokeWidth=1;fillColor=#CCFFFF;" parent="1" vertex="1">
                        <mxGeometry x="2298.5" y="640" width="120" height="60" as="geometry"/>
                    </mxCell>
                </object>
                <mxCell id="298" value="" style="endArrow=classic;html=1;rounded=0;shadow=0;sketch=0;fontSize=13;strokeColor=default;jumpStyle=none;jumpSize=6;verticalAlign=middle;horizontal=1;endFill=1;fontFamily=Tahoma;fontColor=#000000;exitX=0;exitY=0;exitDx=0;exitDy=0;entryX=0.75;entryY=1;entryDx=0;entryDy=0;" parent="1" source="295" target="159" edge="1">
                    <mxGeometry relative="1" as="geometry">
                        <mxPoint x="2283" y="595" as="sourcePoint"/>
                        <mxPoint x="2283" y="555" as="targetPoint"/>
                        <Array as="points">
                            <mxPoint x="2230" y="570"/>
                        </Array>
                    </mxGeometry>
                </mxCell>
                <mxCell id="299" value="&lt;div style=&quot;font-size: 20px;&quot;&gt;|&lt;/div&gt;" style="edgeLabel;resizable=0;html=1;align=center;verticalAlign=middle;fontSize=20;strokeColor=#630000;strokeWidth=1;fillColor=#FF0000;gradientColor=none;horizontal=1;labelBackgroundColor=none;direction=south;rotation=-90;fontFamily=Tahoma;fontColor=#000000;" parent="298" connectable="0" vertex="1">
                    <mxGeometry relative="1" as="geometry">
                        <mxPoint x="-3" y="2" as="offset"/>
                    </mxGeometry>
                </mxCell>
                <mxCell id="301" value="&lt;font style=&quot;font-size: 11px&quot; color=&quot;#0000ff&quot;&gt;&lt;b&gt;say When&lt;/b&gt;&lt;/font&gt;" style="text;html=1;strokeColor=none;fillColor=none;align=center;verticalAlign=middle;whiteSpace=wrap;rounded=0;" parent="1" vertex="1">
                    <mxGeometry x="2780" y="485" width="120" height="15" as="geometry"/>
                </mxCell>
                <mxCell id="302" value="&lt;font style=&quot;font-size: 11px&quot; color=&quot;#0000ff&quot;&gt;&lt;b&gt;(say When)&lt;/b&gt;&lt;/font&gt;" style="text;html=1;strokeColor=none;fillColor=none;align=center;verticalAlign=middle;whiteSpace=wrap;rounded=0;" parent="1" vertex="1">
                    <mxGeometry x="859.99" y="485" width="120" height="15" as="geometry"/>
                </mxCell>
                <mxCell id="303" value="&lt;div&gt;&lt;b&gt;To explore Lava rooms:&lt;/b&gt;&lt;/div&gt;&lt;div&gt;&lt;b&gt;open d;run dduddduu&lt;/b&gt;&lt;/div&gt;" style="text;html=1;strokeColor=default;fillColor=default;align=center;verticalAlign=middle;whiteSpace=wrap;rounded=0;fontColor=#000000;gradientColor=none;dashed=1;spacing=6;" parent="1" vertex="1">
                    <mxGeometry x="2442.5" y="445" width="155" height="50" as="geometry"/>
                </mxCell>
                <mxCell id="306" style="edgeStyle=none;rounded=0;html=1;exitX=1;exitY=0;exitDx=0;exitDy=0;entryX=0;entryY=1;entryDx=0;entryDy=0;fontFamily=Helvetica;fontColor=#000000;startArrow=none;startFill=0;endArrow=none;endFill=0;" parent="1" source="305" target="86" edge="1">
                    <mxGeometry relative="1" as="geometry"/>
                </mxCell>
                <mxCell id="305" value="A" style="ellipse;whiteSpace=wrap;html=1;aspect=fixed;strokeColor=#000000;strokeWidth=1;fillColor=none;gradientColor=none;fontFamily=Helvetica;fontColor=#000000;" parent="1" vertex="1">
                    <mxGeometry x="190" y="610" width="20" height="20" as="geometry"/>
                </mxCell>
                <mxCell id="308" style="edgeStyle=none;rounded=0;html=1;exitX=1;exitY=1;exitDx=0;exitDy=0;entryX=0;entryY=0;entryDx=0;entryDy=0;fontFamily=Helvetica;fontColor=#000000;startArrow=none;startFill=0;endArrow=none;endFill=0;" parent="1" source="307" target="90" edge="1">
                    <mxGeometry relative="1" as="geometry"/>
                </mxCell>
                <mxCell id="307" value="A" style="ellipse;whiteSpace=wrap;html=1;aspect=fixed;strokeColor=#000000;strokeWidth=1;fillColor=none;gradientColor=none;fontFamily=Helvetica;fontColor=#000000;" parent="1" vertex="1">
                    <mxGeometry x="830" y="510" width="20" height="20" as="geometry"/>
                </mxCell>
                <mxCell id="309" value="&lt;div style=&quot;font-size: 32px&quot;&gt;Mount duNoir&lt;/div&gt;" style="text;html=1;strokeColor=none;fillColor=none;align=left;verticalAlign=middle;whiteSpace=wrap;rounded=0;fontSize=32;fontColor=#000000;" parent="1" vertex="1">
                    <mxGeometry x="-235" y="45" width="315" height="30" as="geometry"/>
                </mxCell>
                <mxCell id="310" value="&lt;font style=&quot;font-size: 20px&quot; face=&quot;Tahoma&quot;&gt;Level Range: 175 - 201 (Lock: 160)&lt;/font&gt;" style="text;html=1;strokeColor=none;fillColor=none;align=left;verticalAlign=middle;whiteSpace=wrap;rounded=0;" parent="1" vertex="1">
                    <mxGeometry x="-235" y="82" width="325" height="20" as="geometry"/>
                </mxCell>
                <mxCell id="311" value="&lt;font style=&quot;font-size: 20px&quot; face=&quot;Tahoma&quot;&gt;Area Creator: Zafirah&lt;/font&gt;" style="text;html=1;strokeColor=none;fillColor=none;align=left;verticalAlign=middle;whiteSpace=wrap;rounded=0;" parent="1" vertex="1">
                    <mxGeometry x="-235" y="112" width="335" height="20" as="geometry"/>
                </mxCell>
                <mxCell id="325" value="" style="rounded=0;whiteSpace=wrap;html=1;fontSize=13;strokeWidth=1;fillColor=default;" parent="1" vertex="1">
                    <mxGeometry x="-240" y="160" width="280" height="300" as="geometry"/>
                </mxCell>
                <mxCell id="326" value="" style="rounded=0;whiteSpace=wrap;html=1;fontSize=13;strokeWidth=2;fillColor=#FFFFFF;strokeColor=#FF0000;container=0;" parent="1" vertex="1">
                    <mxGeometry x="-225" y="170" width="40" height="25" as="geometry"/>
                </mxCell>
                <mxCell id="327" value="" style="endArrow=none;html=1;rounded=0;shadow=0;sketch=0;fontSize=13;jumpStyle=none;jumpSize=6;verticalAlign=middle;horizontal=1;endFill=0;fillColor=none;gradientColor=none;strokeColor=#000000;" parent="1" edge="1">
                    <mxGeometry relative="1" as="geometry">
                        <mxPoint x="-225" y="278" as="sourcePoint"/>
                        <mxPoint x="-185" y="278" as="targetPoint"/>
                    </mxGeometry>
                </mxCell>
                <mxCell id="328" value="&lt;div style=&quot;font-size: 20px;&quot;&gt;|&lt;/div&gt;" style="edgeLabel;resizable=0;html=1;align=center;verticalAlign=middle;fontSize=20;strokeColor=#630000;strokeWidth=1;fillColor=#FF0000;gradientColor=none;horizontal=1;labelBackgroundColor=none;direction=south;rotation=0;container=0;" parent="327" connectable="0" vertex="1">
                    <mxGeometry relative="1" as="geometry">
                        <mxPoint x="-2" y="-3" as="offset"/>
                    </mxGeometry>
                </mxCell>
                <mxCell id="329" value="" style="endArrow=none;html=1;rounded=0;shadow=0;sketch=0;fontSize=13;jumpStyle=none;jumpSize=6;verticalAlign=middle;horizontal=1;endFill=0;fillColor=none;gradientColor=none;strokeColor=#000000;" parent="1" edge="1">
                    <mxGeometry relative="1" as="geometry">
                        <mxPoint x="-225" y="307" as="sourcePoint"/>
                        <mxPoint x="-185" y="307" as="targetPoint"/>
                    </mxGeometry>
                </mxCell>
                <mxCell id="330" value="&lt;div style=&quot;font-size: 20px&quot;&gt;X&lt;/div&gt;" style="edgeLabel;resizable=0;html=1;align=center;verticalAlign=middle;fontSize=20;strokeColor=#630000;strokeWidth=1;fillColor=#FF0000;gradientColor=none;horizontal=1;labelBackgroundColor=none;direction=south;rotation=0;container=0;" parent="329" connectable="0" vertex="1">
                    <mxGeometry relative="1" as="geometry">
                        <mxPoint x="-2" y="-1" as="offset"/>
                    </mxGeometry>
                </mxCell>
                <mxCell id="331" value="" style="endArrow=classic;html=1;fontSize=13;strokeColor=#000000;fillColor=none;gradientColor=none;endFill=1;" parent="1" edge="1">
                    <mxGeometry width="50" height="50" relative="1" as="geometry">
                        <mxPoint x="-225" y="338" as="sourcePoint"/>
                        <mxPoint x="-185" y="338" as="targetPoint"/>
                    </mxGeometry>
                </mxCell>
                <mxCell id="332" value="Room with aggressive mobs" style="text;html=1;strokeColor=none;fillColor=none;align=left;verticalAlign=middle;whiteSpace=wrap;rounded=0;fontSize=13;container=0;" parent="1" vertex="1">
                    <mxGeometry x="-180" y="172.5" width="210" height="20" as="geometry"/>
                </mxCell>
                <mxCell id="333" value="Door - can pass w/ pass door" style="text;html=1;strokeColor=none;fillColor=none;align=left;verticalAlign=middle;whiteSpace=wrap;rounded=0;fontSize=13;container=0;" parent="1" vertex="1">
                    <mxGeometry x="-180" y="268" width="210" height="20" as="geometry"/>
                </mxCell>
                <mxCell id="334" value="Door - cannot pass" style="text;html=1;strokeColor=none;fillColor=none;align=left;verticalAlign=middle;whiteSpace=wrap;rounded=0;fontSize=13;container=0;" parent="1" vertex="1">
                    <mxGeometry x="-180" y="298" width="210" height="20" as="geometry"/>
                </mxCell>
                <mxCell id="335" value="Exit is one-way only" style="text;html=1;strokeColor=none;fillColor=none;align=left;verticalAlign=middle;whiteSpace=wrap;rounded=0;fontSize=13;container=0;" parent="1" vertex="1">
                    <mxGeometry x="-180" y="328" width="210" height="20" as="geometry"/>
                </mxCell>
                <mxCell id="338" value="" style="rounded=0;whiteSpace=wrap;html=1;fontSize=13;strokeWidth=2;fillColor=#FFFFFF;strokeColor=#0000FF;container=0;" parent="1" vertex="1">
                    <mxGeometry x="-225" y="203" width="40" height="25" as="geometry"/>
                </mxCell>
                <mxCell id="339" value="Maze / directions are randomized" style="text;html=1;strokeColor=none;fillColor=none;align=left;verticalAlign=middle;whiteSpace=wrap;rounded=0;fontSize=13;container=0;" parent="1" vertex="1">
                    <mxGeometry x="-180" y="205.5" width="210" height="20" as="geometry"/>
                </mxCell>
                <mxCell id="340" value="" style="sketch=0;pointerEvents=1;shadow=0;dashed=0;html=1;labelPosition=center;verticalLabelPosition=bottom;verticalAlign=top;outlineConnect=0;align=center;shape=mxgraph.office.security.key_permissions;strokeWidth=1;direction=south;strokeColor=#000000;fillColor=#000000;" parent="1" vertex="1">
                    <mxGeometry x="-217.50499999999988" y="357.115" width="25" height="11.79" as="geometry"/>
                </mxCell>
                <mxCell id="341" value="Key location" style="text;html=1;strokeColor=none;fillColor=none;align=left;verticalAlign=middle;whiteSpace=wrap;rounded=0;fontSize=13;container=0;" parent="1" vertex="1">
                    <mxGeometry x="-180" y="353" width="210" height="20" as="geometry"/>
                </mxCell>
                <mxCell id="343" value="" style="endArrow=none;html=1;rounded=0;shadow=0;sketch=0;strokeColor=default;jumpStyle=none;endFill=0;fontFamily=Helvetica;fontColor=#000000;" parent="1" edge="1">
                    <mxGeometry relative="1" as="geometry">
                        <mxPoint x="-225" y="388" as="sourcePoint"/>
                        <mxPoint x="-185" y="388" as="targetPoint"/>
                    </mxGeometry>
                </mxCell>
                <mxCell id="344" value="" style="shape=mxgraph.office.security.lock_protected;html=1;outlineConnect=0;strokeColor=default;strokeWidth=1;fillColor=#000000;fontFamily=Helvetica;fontColor=#000000;" parent="343" vertex="1">
                    <mxGeometry width="15" height="20" relative="1" as="geometry">
                        <mxPoint x="-7" y="-10" as="offset"/>
                    </mxGeometry>
                </mxCell>
                <mxCell id="345" value="Locked door" style="text;html=1;strokeColor=none;fillColor=none;align=left;verticalAlign=middle;whiteSpace=wrap;rounded=0;fontSize=13;container=0;" parent="1" vertex="1">
                    <mxGeometry x="-180" y="378" width="210" height="20" as="geometry"/>
                </mxCell>
                <mxCell id="346" value="&lt;font style=&quot;font-size: 11px&quot; color=&quot;#0000ff&quot;&gt;&lt;b&gt;exit&lt;/b&gt;&lt;/font&gt;" style="text;html=1;strokeColor=none;fillColor=none;align=center;verticalAlign=middle;whiteSpace=wrap;rounded=0;" parent="1" vertex="1">
                    <mxGeometry x="-225" y="405.5" width="40" height="15" as="geometry"/>
                </mxCell>
                <mxCell id="347" value="Custom exit command" style="text;html=1;strokeColor=none;fillColor=none;align=left;verticalAlign=middle;whiteSpace=wrap;rounded=0;fontSize=13;container=0;" parent="1" vertex="1">
                    <mxGeometry x="-180" y="403" width="210" height="20" as="geometry"/>
                </mxCell>
                <mxCell id="348" value="&lt;font style=&quot;font-size: 11px&quot; color=&quot;#0000ff&quot;&gt;&lt;b&gt;(exit)&lt;/b&gt;&lt;/font&gt;" style="text;html=1;strokeColor=none;fillColor=none;align=center;verticalAlign=middle;whiteSpace=wrap;rounded=0;" parent="1" vertex="1">
                    <mxGeometry x="-225" y="429.5" width="40" height="15" as="geometry"/>
                </mxCell>
                <mxCell id="349" value="Custom exit destination" style="text;html=1;strokeColor=none;fillColor=none;align=left;verticalAlign=middle;whiteSpace=wrap;rounded=0;fontSize=13;container=0;" parent="1" vertex="1">
                    <mxGeometry x="-180" y="427" width="210" height="20" as="geometry"/>
                </mxCell>
                <mxCell id="350" value="&lt;div&gt;&lt;b&gt;Blind the boneless golem or kill it with slashing damage&lt;/b&gt;&lt;/div&gt;" style="text;html=1;strokeColor=default;fillColor=default;align=center;verticalAlign=middle;whiteSpace=wrap;rounded=0;fontColor=#000000;gradientColor=none;dashed=1;spacing=6;" parent="1" vertex="1">
                    <mxGeometry x="1802.5" y="480" width="155" height="50" as="geometry"/>
                </mxCell>
                <mxCell id="351" value="&lt;span style=&quot;font-size: 13px&quot;&gt;&lt;b&gt;The Dark Continent, Abend (14, 33)&lt;/b&gt;&lt;/span&gt;" style="text;html=1;strokeColor=none;fillColor=none;align=center;verticalAlign=middle;whiteSpace=wrap;rounded=0;" parent="1" vertex="1">
                    <mxGeometry x="1020" y="450" width="130" height="40" as="geometry"/>
                </mxCell>
                <mxCell id="352" value="" style="endArrow=classic;html=1;exitX=0;exitY=0.5;exitDx=0;exitDy=0;shape=flexArrow;fillColor=#333333;gradientColor=#666666;entryX=1;entryY=0.5;entryDx=0;entryDy=0;" parent="1" source="351" target="2" edge="1">
                    <mxGeometry width="50" height="50" relative="1" as="geometry">
                        <mxPoint x="1480" y="899" as="sourcePoint"/>
                        <mxPoint x="1030" y="425" as="targetPoint"/>
                    </mxGeometry>
                </mxCell>
                <mxCell id="353" value="mapped by Nohh" style="text;html=1;strokeColor=none;fillColor=none;align=right;verticalAlign=middle;whiteSpace=wrap;rounded=0;fontSize=11;fontStyle=0;fontFamily=Helvetica;" parent="1" vertex="1">
                    <mxGeometry x="-69" y="446" width="109" height="14" as="geometry"/>
                </mxCell>
                <mxCell id="354" value="" style="rounded=0;whiteSpace=wrap;html=1;fontSize=13;strokeWidth=1;fillColor=#CCFFFF;strokeColor=#000000;container=0;" vertex="1" parent="1">
                    <mxGeometry x="-225" y="235" width="40" height="25" as="geometry"/>
                </mxCell>
                <mxCell id="355" value="norecall + prison room" style="text;html=1;strokeColor=none;fillColor=none;align=left;verticalAlign=middle;whiteSpace=wrap;rounded=0;fontSize=13;container=0;" vertex="1" parent="1">
                    <mxGeometry x="-180" y="237.5" width="210" height="20" as="geometry"/>
                </mxCell>
            </root>
        </mxGraphModel>
    </diagram>
</mxfile>